<?xml version="1.0" encoding="UTF-8" standalone="no"?>
<svg
   xmlns:dc="http://purl.org/dc/elements/1.1/"
   xmlns:cc="http://creativecommons.org/ns#"
   xmlns:rdf="http://www.w3.org/1999/02/22-rdf-syntax-ns#"
   xmlns:svg="http://www.w3.org/2000/svg"
   xmlns="http://www.w3.org/2000/svg"
   xmlns:sodipodi="http://sodipodi.sourceforge.net/DTD/sodipodi-0.dtd"
   xmlns:inkscape="http://www.inkscape.org/namespaces/inkscape"
   version="1.0"
   width="300.000000pt"
   height="300.000000pt"
   viewBox="0 0 300.000000 300.000000"
   preserveAspectRatio="xMidYMid meet"
   id="svg12"
   sodipodi:docname="0-00-KP-Lock.svg"
   inkscape:version="1.0.2-2 (e86c870879, 2021-01-15)">
  <metadata
     id="metadata18">
    <rdf:RDF>
      <cc:Work
         rdf:about="">
        <dc:format>image/svg+xml</dc:format>
        <dc:type
           rdf:resource="http://purl.org/dc/dcmitype/StillImage" />
      </cc:Work>
    </rdf:RDF>
  </metadata>
  <defs
     id="defs16" />
  <sodipodi:namedview
     pagecolor="#ffffff"
     bordercolor="#666666"
     borderopacity="1"
     objecttolerance="10"
     gridtolerance="10"
     guidetolerance="10"
     inkscape:pageopacity="0"
     inkscape:pageshadow="2"
     inkscape:window-width="1920"
     inkscape:window-height="1013"
     id="namedview14"
     showgrid="false"
     inkscape:zoom="2.105"
     inkscape:cx="200"
     inkscape:cy="199.04988"
     inkscape:window-x="3191"
     inkscape:window-y="-9"
     inkscape:window-maximized="1"
     inkscape:current-layer="svg12" />
  <g
     transform="translate(0.000000,300.000000) scale(0.100000,-0.100000)"
     fill="#006F91"
     stroke="none"
     id="g10">
    <path
       d="M1378 2845 c-262 -50 -478 -236 -563 -484 -34 -101 -45 -203 -45 -419 l0 -184 -47 -62 c-62 -82 -138 -243 -162 -344 -123 -515 182 -1023 694 -1158 85 -23 121 -27 240 -27 119 0 155 4 240 27 512 135 817 643 694 1157 -22 93 -91 247 -144 320 l-35 49 0 234 c0 255 -10 337 -54 444 -84 207 -285 382 -500 437 -90 23 -228 27 -318 10z m321 -160 c196 -63 353 -238 396 -440 13 -62 22 -375 11 -375 -2 0 -34 21 -72 46 -306 207 -726 218 -1034 28 -39 -24 -76 -44 -81 -44 -12 0 -11 159 0 270 16 153 71 270 177 375 60 60 157 119 238 145 110 35 243 33 365 -5z m131 -941 c63 -34 105 -81 138 -153 69 -151 0 -336 -155 -415 -18 -9 -39 -16 -49 -16 -11 0 -14 -5 -9 -17 4 -10 9 -43 12 -74 11 -112 -44 -222 -142 -287 l-50 -32 -5 -78 -5 -77 -40 0 -40 0 -3 58 c-3 57 -7 62 -36 51 -12 -5 -16 -20 -16 -60 l0 -54 -40 0 -40 0 0 41 c0 38 -2 41 -22 35 -25 -7 -258 -64 -295 -72 -13 -2 -23 -1 -23 3 1 27 64 277 95 373 72 221 119 296 220 346 51 25 53 27 43 52 -5 15 -10 59 -11 99 -1 196 168 339 370 312 28 -4 75 -20 103 -35z"
       id="path2" />
    <path
       d="M1575 1681 c-108 -50 -163 -180 -126 -294 11 -31 17 -36 58 -42 63 -9 124 -39 168 -82 36 -35 38 -35 76 -24 50 15 114 72 141 125 42 83 22 199 -48 270 -65 65 -185 86 -269 47z m70 -81 c18 -7 40 -6 70 2 38 10 50 9 80 -5 42 -20 75 -70 75 -113 0 -46 -38 -97 -87 -114 -37 -12 -46 -12 -74 1 -29 14 -36 14 -61 1 -63 -31 -150 18 -164 93 -9 48 14 98 58 125 37 22 64 25 103 10z"
       id="path4" />
    <path
       d="M1575 1560 c-36 -14 -50 -41 -46 -92 3 -52 90 -78 126 -38 l18 20 22 -20 c28 -26 86 -27 109 -1 21 23 24 85 5 107 -30 36 -72 37 -122 2 -13 -9 -20 -10 -25 -2 -8 13 -47 34 -59 33 -4 0 -17 -4 -28 -9z"
       id="path6" />
    <path
       d="M1387 1256 c-65 -24 -104 -62 -141 -139 -50 -103 -137 -400 -122 -414 9 -9 233 53 341 94 115 43 158 72 189 126 56 95 43 201 -33 277 -67 66 -149 86 -234 56z"
       id="path8" />
  </g>
  <path
     style="fill:#ffffff;stroke-width:0.475059"
     d="m 135.44707,320.46164 c -0.78853,-0.48735 -0.43315,-2.2551 4.06574,-20.22411 8.57505,-34.24954 15.94805,-54.29466 23.67679,-64.37055 3.59886,-4.6918 7.36969,-7.71829 14.05545,-11.28097 6.58235,-3.50757 6.5732,-3.4954 5.45538,-7.25953 -1.86913,-6.29402 -1.87528,-17.13263 -0.0138,-24.31629 3.61923,-13.96707 15.19787,-25.07 30.41764,-29.16794 2.53542,-0.68266 4.96599,-0.88511 10.64871,-0.88696 6.39773,-0.002 7.83069,0.14364 10.92636,1.11112 7.97872,2.49355 13.91751,5.98691 18.81825,11.06941 3.43918,3.56673 5.09499,5.96102 7.66774,11.08746 3.07812,6.13343 3.99028,9.63742 4.2671,16.3918 0.36711,8.95733 -1.43619,16.03995 -6.06972,23.83934 -2.37594,3.9993 -8.08776,10.13178 -12.11428,13.00646 -3.53954,2.52701 -9.50723,5.43223 -11.15847,5.43223 -0.67596,0 -1.58699,0.26722 -2.02451,0.59383 -0.72132,0.53846 -0.73318,0.83742 -0.12725,3.20665 4.9711,19.43749 -2.24392,37.18691 -19.58486,48.18003 -2.81897,1.78705 -4.46495,3.14355 -4.59493,3.7868 -0.18694,0.9252 -1.21773,17.04952 -1.21051,18.93578 0.003,0.74157 -0.56116,0.83135 -5.22247,0.83135 h -5.22566 l -0.008,-2.73159 c -0.015,-4.83814 -0.86207,-11.16912 -1.5922,-11.89924 -0.9213,-0.9213 -3.67263,-0.40536 -4.86621,0.91253 -0.76861,0.84866 -0.92003,1.93219 -1.0609,7.59166 l -0.1643,6.6017 h -5.1801 -5.18009 v -4.69242 c 0,-3.23694 -0.18892,-4.84921 -0.60905,-5.19789 -0.44155,-0.36645 -2.69522,0.0193 -8.19477,1.40284 -6.36313,1.60074 -31.05565,7.55026 -34.193,8.23861 -0.52474,0.11513 -1.24637,0.0287 -1.60362,-0.19211 z m 27.26077,-16.42472 c 15.33263,-3.94173 31.43485,-9.22277 41.2625,-13.53284 11.01276,-4.82982 16.484,-10.47432 20.03585,-20.67035 1.23698,-3.55094 1.48581,-12.00159 0.46859,-15.91449 -2.70442,-10.40298 -12.12346,-19.87216 -22.40558,-22.52486 -8.77376,-2.26354 -20.0955,0.48771 -27.05313,6.57407 -3.00624,2.62978 -6.84215,8.13992 -9.21007,13.22991 -5.84735,12.56923 -15.36425,43.47725 -16.03576,52.0793 l -0.27441,3.51519 2.568,-0.33987 c 1.4124,-0.18693 6.2022,-1.27416 10.64401,-2.41606 z m 74.34679,-70.60915 c 3.36506,-1.65853 4.83186,-2.78889 8.80151,-6.78263 6.38155,-6.42028 8.47142,-10.54833 9.45502,-18.67621 1.0679,-8.82441 -3.61672,-21.06442 -10.32794,-26.98493 -3.42388,-3.02047 -10.0797,-6.19538 -15.00952,-7.15972 -5.72327,-1.11955 -12.89611,-0.74739 -17.61143,0.91376 -8.99112,3.16745 -16.09476,10.69869 -19.34683,20.51137 -1.08038,3.25991 -1.26447,4.6451 -1.29425,9.73871 -0.0573,9.79046 2.07132,14.66819 6.74885,15.4653 5.57263,0.94965 10.55898,2.42677 14.23207,4.21601 3.82443,1.86295 10.28899,6.48436 12.00098,8.57931 2.63121,3.21977 6.08062,3.26977 12.35154,0.17903 z"
     id="path20"
     transform="scale(0.75)" />
  <path
     style="fill:#ffffff;stroke-width:0.475059"
     d="m 135.13463,320.30981 c -0.75202,-1.95971 9.23691,-40.21089 14.5793,-55.82938 8.03937,-23.50309 14.32811,-32.83105 26.59155,-39.44269 7.32468,-3.94898 7.32594,-3.95051 6.35119,-7.71222 -0.42309,-1.63276 -0.97072,-5.44038 -1.21695,-8.46139 -1.05267,-12.91517 2.4359,-23.74199 10.48114,-32.52838 8.61992,-9.41402 20.43968,-14.10204 34.0888,-13.5205 4.61606,0.19667 6.36262,0.50089 10.09485,1.75832 7.65175,2.57796 11.52502,4.90931 16.63178,10.01075 5.38422,5.37864 8.40167,10.179 10.82113,17.21498 1.47526,4.29021 1.70297,5.5882 1.89746,10.81578 0.33417,8.98231 -1.47755,16.07176 -6.09218,23.83934 -2.37594,3.9993 -8.08776,10.13178 -12.11428,13.00646 -3.58818,2.56173 -9.51459,5.43223 -11.21534,5.43223 -2.21475,0 -2.75351,0.98659 -2.04028,3.73616 1.05774,4.07769 1.75238,11.53552 1.42193,15.26622 -1.19011,13.43603 -8.09092,24.36875 -20.68789,32.77517 -2.48218,1.65645 -4.6416,3.20468 -4.79869,3.44053 -0.1571,0.23584 -0.42888,3.13984 -0.60395,6.45334 -0.17507,3.3135 -0.45219,7.7882 -0.61581,9.94378 l -0.29749,3.91924 h -5.09123 -5.09124 l -0.34506,-6.05688 c -0.18979,-3.3313 -0.64539,-6.77568 -1.01246,-7.6542 -0.63404,-1.51746 -0.75637,-1.58061 -2.44725,-1.2634 -2.32023,0.43528 -2.47676,0.55184 -3.26073,2.42815 -0.44392,1.06244 -0.66412,3.48467 -0.66412,7.30542 v 5.71597 h -5.20903 -5.20904 l -0.13538,-4.86936 c -0.13462,-4.84182 -0.14232,-4.87016 -1.36239,-5.01201 -0.67485,-0.0785 -5.91238,1.03129 -11.63896,2.46612 -9.66346,2.42125 -26.43676,6.42916 -30.00854,7.17042 -1.11614,0.23163 -1.61545,0.13515 -1.80084,-0.34797 z m 26.4361,-15.99984 c 10.18834,-2.57907 25.10692,-7.14231 33.26792,-10.17587 17.07951,-6.34871 22.84181,-10.54048 27.20501,-19.79024 2.26128,-4.7938 3.13449,-8.45367 3.13449,-13.13763 0,-5.24158 -0.6656,-8.16985 -2.95214,-12.9877 -1.60108,-3.37358 -2.63544,-4.75212 -6.28617,-8.37791 -6.56996,-6.52509 -12.72029,-9.2083 -21.07011,-9.19227 -4.79332,0.009 -8.92921,1.02024 -13.7967,3.37267 -7.0052,3.38556 -12.08835,9.62908 -16.70105,20.51355 -6.153,14.51905 -14.71212,43.53835 -14.72397,49.92093 l -0.004,2.31774 2.30707,-0.30605 c 1.26889,-0.16832 5.59787,-1.13907 9.61995,-2.15722 z m 75.24637,-70.77282 c 7.4582,-3.691 14.81066,-11.93993 17.15666,-19.24853 4.364,-13.59534 -2.24061,-30.64614 -14.3063,-36.93393 -5.97396,-3.1132 -9.5736,-3.95802 -16.86461,-3.95802 -5.51472,0 -6.90917,0.16239 -9.95237,1.15897 -9.02274,2.95475 -16.60816,10.86727 -19.82868,20.68375 -1.06641,3.25051 -1.25574,4.68317 -1.28834,9.74873 -0.0631,9.79734 2.05863,14.66812 6.73658,15.4653 5.57263,0.94965 10.55898,2.42677 14.23207,4.21601 3.82443,1.86295 10.28899,6.48436 12.00098,8.57931 2.59952,3.181 6.10069,3.26436 12.11401,0.28841 z"
     id="path22"
     transform="scale(0.75)" />
  <path
     style="fill:#ffffff;stroke-width:0.475059"
     d="m 135.12011,320.27198 c -0.73951,-1.92713 9.31597,-40.36174 14.60523,-55.82492 8.07938,-23.62004 14.26301,-32.76833 26.67171,-39.45903 6.84011,-3.68814 7.19724,-4.12614 6.24657,-7.66089 -1.81195,-6.73714 -1.7973,-17.41192 0.0335,-24.44104 2.97972,-11.43993 12.11029,-21.77673 23.63776,-26.76054 9.02373,-3.90133 21.01452,-4.52882 29.78958,-1.55892 7.6689,2.59552 11.52985,4.92106 16.63178,10.01768 5.38603,5.38044 8.4039,10.1825 10.81881,17.21498 1.45737,4.244 1.7037,5.62755 1.90238,10.68486 0.38049,9.68556 -1.95858,18.08907 -7.17626,25.78187 -2.12663,3.13544 -7.73939,8.82662 -11.0328,11.18696 -3.48968,2.50101 -9.48966,5.43746 -11.13051,5.44739 -2.52285,0.0153 -2.63253,0.39785 -1.65441,5.77083 1.18476,6.50818 1.19609,14.65393 0.027,19.40005 -2.61195,10.60343 -9.24008,19.55921 -19.629,26.52226 -2.40814,1.61402 -4.57024,3.30799 -4.80466,3.76436 -0.23442,0.45637 -0.56393,3.2882 -0.73224,6.29295 -0.1683,3.00475 -0.44187,7.33373 -0.60792,9.61995 l -0.30191,4.15677 h -5.09019 -5.09019 l -0.33701,-5.76148 c -0.36949,-6.31694 -1.04056,-9.10908 -2.24503,-9.34102 -0.43161,-0.0831 -1.53917,0.16412 -2.46126,0.54939 -2.19145,0.91565 -2.68614,2.69673 -2.6896,9.68375 l -0.003,5.34442 h -5.22565 -5.22565 v -4.23668 c 0,-4.99361 -0.21568,-5.73956 -1.65944,-5.73956 -0.5955,0 -6.6713,1.38904 -13.50178,3.08676 -12.17495,3.02609 -28.54709,6.88948 -29.19597,6.88948 -0.18052,0 -0.43711,-0.28378 -0.57021,-0.63063 z m 20.69937,-14.58727 c 11.29555,-2.38082 34.38629,-9.53753 45.19966,-14.00912 11.17047,-4.61926 16.7223,-8.96986 20.35365,-15.94977 3.57076,-6.86344 4.74329,-15.06682 3.08563,-21.58801 -1.41599,-5.57046 -3.81932,-9.59321 -8.50317,-14.23282 -7.03638,-6.96993 -13.50942,-9.60983 -22.36855,-9.12255 -12.34868,0.6792 -20.7918,6.64233 -27.00347,19.07178 -6.22316,12.45245 -16.93952,47.0278 -16.93952,54.65381 0,2.54421 -0.16406,2.51295 6.17577,1.17668 z m 77.60125,-70.78047 c 5.89031,-1.81933 13.65067,-8.17198 17.6311,-14.43285 6.45126,-10.14725 5.51304,-24.19242 -2.35235,-35.21477 -3.55314,-4.97928 -8.8566,-8.56173 -15.92038,-10.75412 -3.03591,-0.94225 -4.54675,-1.10251 -10.21378,-1.08342 -5.67991,0.0191 -7.10161,0.18127 -9.73872,1.11066 -9.20215,3.24311 -16.3766,10.76356 -19.76639,20.71967 -2.53107,7.43398 -1.48735,20.28465 1.90647,23.47298 0.85718,0.80527 2.81923,1.47349 7.26072,2.47277 8.86118,1.99367 16.94137,6.21459 21.7631,11.36859 1.81819,1.94348 3.99226,3.29919 5.29437,3.30146 0.56037,9.5e-4 2.4215,-0.43146 4.13586,-0.96097 z"
     id="path24"
     transform="scale(0.75)" />
  <path
     style="fill:#ffffff;stroke-width:0.475059"
     d="m 135.11261,320.25244 c -0.76266,-1.98747 9.1406,-39.80758 14.61273,-55.80538 8.08535,-23.63751 14.19574,-32.67871 26.70301,-39.51096 3.10447,-1.69585 5.92256,-3.51092 6.26242,-4.03349 0.51052,-0.78498 0.49803,-1.40425 -0.0718,-3.56294 -0.37939,-1.43706 -0.9005,-5.16405 -1.15803,-8.28222 -0.73378,-8.88426 0.38124,-15.65328 3.75507,-22.79619 5.48554,-11.61371 16.33838,-19.98612 29.41488,-22.69209 6.58567,-1.3628 15.30026,-1.03601 20.99861,0.78743 13.85199,4.43255 23.36798,13.85951 28.06751,27.80492 1.2801,3.79857 1.55792,5.43283 1.75481,10.32264 0.38966,9.67682 -1.94799,18.08188 -7.17055,25.78187 -2.12663,3.13544 -7.73939,8.82662 -11.0328,11.18696 -3.48968,2.50101 -9.48966,5.43746 -11.13051,5.44739 -2.52332,0.0153 -2.63284,0.39824 -1.65034,5.77083 1.17243,6.41123 1.17508,15.05912 0.006,19.63758 -2.67527,10.47724 -9.33842,19.3988 -19.65003,26.31023 -2.42899,1.62804 -4.59023,3.4289 -4.80274,4.00189 -0.21251,0.57299 -0.52729,3.50023 -0.69951,6.50498 -0.17221,3.00475 -0.44537,7.22684 -0.607,9.38242 l -0.29389,3.91924 h -5.0906 -5.09061 l -0.32488,-5.34441 c -0.35204,-5.79134 -0.87053,-8.72819 -1.68463,-9.54229 -0.37498,-0.37498 -1.0765,-0.32596 -2.53099,0.17685 -2.65131,0.91652 -3.13843,2.39073 -3.17307,9.60297 l -0.0268,5.58194 h -5.22565 -5.22565 v -4.23668 c 0,-4.86236 -0.22571,-5.73956 -1.47683,-5.73956 -0.49506,0 -8.32848,1.80594 -17.4076,4.01321 -15.24122,3.70536 -24.91227,5.96303 -25.54351,5.96303 -0.1416,0 -0.36974,-0.29258 -0.50696,-0.65017 z M 163.1829,303.7992 c 17.80457,-4.57443 33.12681,-9.76919 42.99287,-14.57604 5.69278,-2.77359 6.81937,-3.53126 10.02772,-6.74397 4.20118,-4.20689 7.08982,-9.52604 8.32089,-15.32212 0.98382,-4.63201 0.64695,-11.4463 -0.76535,-15.48143 -2.89682,-8.2766 -11.38306,-16.77229 -19.55094,-19.5727 -11.27521,-3.86579 -25.33714,0.35544 -32.68561,9.81184 -5.04861,6.49682 -10.05262,18.39769 -15.9247,37.87324 -3.46461,11.49087 -5.49548,19.75665 -5.82821,23.72125 l -0.27458,3.27174 2.33089,-0.33139 c 1.28199,-0.18227 6.39265,-1.37495 11.35702,-2.65042 z m 69.62874,-68.68187 c 5.31599,-1.54447 12.09843,-6.53919 16.29552,-12.00036 4.33468,-5.64019 6.01643,-10.56648 6.03474,-17.67734 0.018,-6.99851 -1.67499,-12.8984 -5.31926,-18.5368 -3.73178,-5.77379 -8.55327,-9.39126 -15.96933,-11.98149 -3.81623,-1.33291 -4.69503,-1.45666 -10.5754,-1.48919 -7.34839,-0.0406 -9.43404,0.40426 -14.8222,3.16188 -11.46077,5.86553 -18.30947,19.48999 -16.5676,32.95878 0.63263,4.89168 2.46303,9.13983 4.31141,10.0063 0.65321,0.3062 3.64609,1.10757 6.65084,1.78083 8.2517,1.84891 14.48754,5.06588 20.3616,10.50422 2.89329,2.67868 4.97872,4.01481 6.27426,4.0199 0.40982,0.001 1.90626,-0.33442 3.32542,-0.74673 z"
     id="path26"
     transform="scale(0.75)" />
  <path
     style="fill:#ffffff;stroke-width:0.475059"
     d="m 135.12005,320.27183 c -0.79166,-2.06304 8.95472,-39.30531 14.62304,-55.87664 5.98453,-17.49579 10.09905,-25.37041 16.76522,-32.08636 3.51323,-3.53946 5.19346,-4.80566 9.42385,-7.10164 7.84572,-4.25817 7.31528,-3.45889 6.36544,-9.59166 -1.61612,-10.43469 -1.42248,-17.02594 0.70262,-23.91511 3.6182,-11.72952 12.91883,-21.5746 24.70336,-26.14949 8.40603,-3.26331 19.90571,-3.75423 27.92587,-1.19215 13.82284,4.41577 23.22832,13.71803 28.11123,27.80274 1.52702,4.40467 1.56429,4.70132 1.55177,12.35154 -0.012,7.31269 -0.10284,8.10935 -1.35454,11.87649 -1.4952,4.49996 -3.47658,8.66106 -5.65518,11.87648 -2.1647,3.19489 -8.27072,9.35431 -11.37487,11.47435 -3.60738,2.46373 -9.26984,5.15273 -10.85054,5.15273 -2.28017,0 -2.52673,0.90585 -1.58159,5.81079 1.14789,5.95711 1.14892,15.13677 0.002,19.60489 -2.68711,10.47008 -9.22624,19.23735 -19.63934,26.33122 -2.42072,1.64912 -4.53578,3.21595 -4.70012,3.48185 -0.26774,0.43321 -1.53576,15.75298 -1.57257,18.99928 l -0.015,1.30641 h -5.12651 -5.12652 l -0.52842,-6.53206 c -0.29064,-3.59264 -0.67245,-6.88965 -0.84847,-7.32669 -0.45829,-1.13794 -1.5944,-1.44236 -3.292,-0.8821 -2.43414,0.80334 -2.82595,1.95176 -3.04372,8.92138 l -0.19667,6.29453 h -5.17063 -5.17062 v -4.23668 c 0,-4.83345 -0.22757,-5.73956 -1.44147,-5.73956 -0.47561,0 -6.17127,1.29345 -12.65701,2.87434 -22.06168,5.3775 -29.37664,7.1019 -30.12644,7.1019 -0.25326,0 -0.56941,-0.28385 -0.70254,-0.63078 z m 27.11273,-16.23265 c 17.84154,-4.54447 34.15741,-10.05575 43.93135,-14.8394 5.67011,-2.77512 6.81761,-3.54912 10.04168,-6.77319 6.23009,-6.23009 9.29932,-14.23156 8.83934,-23.04417 -0.39648,-7.59618 -3.1889,-13.56887 -9.11406,-19.49403 -9.72668,-9.72668 -22.02733,-11.85041 -34.36442,-5.9331 -6.30103,3.0222 -10.94495,7.98666 -14.98947,16.0241 -5.98358,11.8908 -16.91363,47.21109 -16.92919,54.70638 l -0.004,2.07294 2.25653,-0.33123 c 1.24109,-0.18218 5.89073,-1.25691 10.33254,-2.3883 z m 70.99302,-69.11276 c 9.5303,-3.21053 18.73115,-12.91518 21.17772,-22.33735 1.21057,-4.6621 0.79476,-12.79112 -0.91124,-17.81472 -3.42176,-10.07594 -9.62294,-16.34653 -19.63897,-19.85881 -3.83647,-1.34532 -4.66385,-1.46108 -10.5754,-1.47963 -5.30571,-0.0166 -6.98761,0.15938 -9.73872,1.01928 -8.15219,2.54809 -14.5017,8.21457 -18.50981,16.51868 -2.61823,5.42453 -3.28443,8.32747 -3.27066,14.25178 0.0172,7.39643 1.67727,12.83675 4.3267,14.17921 0.71597,0.36278 3.80535,1.23673 6.86531,1.9421 8.40789,1.93817 15.02831,5.43457 20.80224,10.98613 2.29667,2.20822 4.47456,3.52626 5.83446,3.53097 0.46549,0.001 2.10275,-0.42033 3.63837,-0.93764 z"
     id="path28"
     transform="scale(0.75)" />
  <path
     style="fill:#ffffff;stroke-width:0.475059"
     d="m 135.13998,320.32376 c -0.33702,-0.87826 1.488,-9.32579 4.80132,-22.224 7.24876,-28.21828 13.75354,-46.97755 19.92558,-57.46383 3.57691,-6.07715 9.57095,-11.86893 15.90509,-15.36838 2.74347,-1.5157 5.51297,-3.15186 6.15444,-3.63592 l 1.16632,-0.88009 -0.91095,-5.38765 c -1.25685,-7.43343 -1.17568,-16.38568 0.1953,-21.53966 4.14317,-15.57555 16.29822,-26.95223 32.345,-30.2737 6.48999,-1.34334 15.24519,-1.00579 20.90737,0.80607 14.28101,4.56983 23.93121,14.442 28.57288,29.2301 0.96635,3.07873 1.11834,4.53138 1.11834,10.68883 0,5.47319 -0.20686,7.89716 -0.89187,10.45131 -1.06653,3.97665 -3.879,10.21392 -6.03503,13.38399 -2.27287,3.34188 -8.32819,9.47293 -11.48591,11.62955 -3.34742,2.28619 -9.23346,5.15273 -10.58038,5.15273 -0.54532,0 -1.3627,0.27143 -1.81639,0.60318 -0.77152,0.56415 -0.77796,0.87233 -0.0995,4.76273 2.29008,13.1323 0.9018,21.96854 -5.03839,32.06879 -2.20847,3.75513 -9.80612,11.2429 -14.7933,14.57936 -2.30174,1.53988 -4.29941,2.98494 -4.43928,3.21124 -0.24084,0.3897 -1.55633,16.222 -1.57891,19.00273 l -0.0106,1.30641 h -5.16082 -5.16082 l -0.33757,-5.10688 c -0.39932,-6.04124 -1.05362,-9.45551 -1.87223,-9.76963 -1.0959,-0.42054 -3.06193,0.23699 -4.14008,1.38463 -0.97331,1.03604 -1.08918,1.71597 -1.28714,7.55274 l -0.21754,6.4142 h -5.16368 -5.16368 l -0.006,-3.91924 c -0.008,-4.67806 -0.31649,-6.05751 -1.35533,-6.05551 -0.42678,8.2e-4 -9.5408,2.12152 -20.25339,4.71265 -23.42392,5.66573 -22.95174,5.57079 -23.29232,4.68325 z m 25.43009,-15.86845 c 17.06695,-4.18237 35.80551,-10.48458 46.03878,-15.48391 4.98941,-2.43751 6.41965,-3.40007 9.2993,-6.25851 3.87702,-3.84846 5.80563,-6.98072 7.60775,-12.35584 3.30142,-9.84695 1.41519,-19.92945 -5.22479,-27.92824 -9.87196,-11.89215 -24.17711,-14.97165 -37.53101,-8.07937 -6.50626,3.35803 -11.64115,9.69154 -16.13382,19.89987 -5.76352,13.09595 -14.98257,44.32669 -14.98257,50.75539 v 1.76757 l 2.019,-0.31447 c 1.11045,-0.17295 5.11876,-1.07408 8.90736,-2.00249 z m 75.77197,-70.94579 c 9.28148,-4.57276 16.62868,-13.49714 18.32008,-22.25276 0.87374,-4.52297 0.35268,-11.86817 -1.16104,-16.36673 -1.83372,-5.44952 -3.86015,-8.72464 -7.86865,-12.7173 -3.91748,-3.902 -8.26167,-6.36708 -13.86826,-7.86945 -4.52395,-1.21227 -14.3596,-1.09653 -18.46251,0.21725 -9.35807,2.99651 -17.23987,11.37058 -20.40461,21.67899 -1.8241,5.94162 -1.24074,16.48853 1.16984,21.15008 0.96849,1.87285 1.7373,2.21666 8.96076,4.00728 8.85429,2.19488 13.83207,4.79723 20.48779,10.71087 1.82898,1.62506 3.75297,3.14082 4.27553,3.36836 1.60775,0.70006 4.57798,0.0309 8.55107,-1.92659 z"
     id="path32"
     transform="scale(0.75)" />
  <path
     style="fill:#ffffff;stroke-width:0.475059"
     d="m 135.14228,320.32975 c -0.34583,-0.9012 1.49662,-9.3788 4.99045,-22.96245 7.13623,-27.74497 13.72768,-46.68851 19.78253,-56.85413 3.5887,-6.02514 9.61458,-11.79684 16.00074,-15.32582 2.82269,-1.55981 5.57237,-3.24613 6.1104,-3.74739 1.04757,-0.97596 1.04634,-1.05897 -0.11057,-7.42571 -0.30861,-1.69834 -0.56138,-6.08076 -0.56171,-9.73872 -4.7e-4,-5.29861 0.20622,-7.42352 1.01665,-10.4513 3.92759,-14.67351 14.69385,-25.43738 29.79311,-29.78651 3.23698,-0.93237 4.82404,-1.07832 11.58909,-1.0658 7.30287,0.0135 8.1144,0.10594 11.87648,1.35272 8.02645,2.66002 12.94775,5.67912 18.17385,11.14922 7.70896,8.06887 11.75489,18.06393 11.75489,29.0392 0,7.96032 -1.99905,15.05317 -6.25628,22.19789 -2.07367,3.48016 -8.90581,10.67123 -12.38029,13.0307 -3.37899,2.29463 -9.25415,5.15146 -10.59414,5.15146 -0.54532,0 -1.36963,0.27651 -1.8318,0.61445 -0.79286,0.57975 -0.79789,0.83803 -0.0892,4.57404 2.39067,12.60258 0.87371,22.30925 -5.03332,32.2071 -2.47406,4.14554 -8.38585,10.06321 -14.11755,14.1316 l -5.21695,3.70302 -0.28232,2.90746 c -0.33596,3.46001 -1.20248,15.38091 -1.20413,16.56542 -9.5e-4,0.74071 -0.56422,0.83135 -5.16561,0.83135 h -5.16445 l -0.34032,-4.86936 c -0.4323,-6.18557 -0.92218,-8.82588 -1.80051,-9.7042 -0.61305,-0.61306 -0.90175,-0.61191 -2.38909,0.01 -0.93048,0.38878 -1.95929,1.20597 -2.28624,1.81597 -0.34513,0.64391 -0.6865,3.64964 -0.81388,7.16611 l -0.21942,6.057 h -5.1626 -5.16259 v -4.18473 c 0,-6.85694 2.01269,-6.75214 -21.43173,-1.11605 -24.2507,5.82991 -23.13673,5.60554 -23.4735,4.72792 z m 26.14038,-16.10416 c 15.88154,-3.92028 34.46603,-10.09223 44.18052,-14.67244 9.84487,-4.64168 14.92284,-10.03725 18.11155,-19.24436 1.13691,-3.28274 1.3179,-4.54472 1.32851,-9.26366 0.009,-4.10133 -0.20821,-6.1145 -0.87222,-8.07601 -3.33921,-9.86415 -11.02348,-17.6803 -20.64607,-21.00041 -4.63209,-1.59823 -12.12024,-1.49485 -17.3992,0.24019 -9.39309,3.08724 -15.22181,8.7802 -20.38306,19.90834 -5.5823,12.03592 -14.97113,42.56987 -15.79908,51.38107 l -0.3064,3.26079 2.09225,-0.32862 c 1.15074,-0.18075 5.51268,-1.17295 9.6932,-2.20489 z m 73.18931,-69.83587 c 7.81729,-2.92482 16.15679,-11.39013 19.12961,-19.41819 1.41177,-3.81246 1.88423,-10.7402 1.057,-15.49902 -1.65972,-9.54799 -7.56852,-17.98212 -15.50058,-22.12531 -5.71334,-2.98428 -8.91612,-3.713 -16.31896,-3.713 -10.19669,0 -14.6525,1.77637 -21.42793,8.54254 -6.60568,6.59665 -9.48712,13.46343 -9.48712,22.60882 0,7.40796 1.53387,13.2413 3.8008,14.45452 0.47184,0.25252 3.74637,1.19307 7.27673,2.09011 8.58847,2.18228 16.36797,6.21632 20.27639,10.51429 0.65321,0.71831 2.14964,1.92827 3.32542,2.6888 2.38586,1.54325 3.41018,1.52456 7.86864,-0.14356 z"
     id="path34"
     transform="scale(0.75)" />
  <path
     style="fill:#ffffff;stroke-width:0.475059"
     d="m 211.5701,217.79468 c -4.73182,-0.93341 -9.94735,-4.91011 -11.99951,-9.14931 -3.9759,-8.21311 -0.40396,-17.3248 8.44652,-21.54634 3.15033,-1.50265 7.15467,-1.678 10.45117,-0.45764 2.56214,0.94849 6.0469,0.97213 9.79775,0.0665 6.54494,-1.58034 11.02291,-0.43326 15.4014,3.94522 4.53585,4.53586 6.30125,10.50198 4.60911,15.57634 -1.73073,5.19005 -6.84697,9.85983 -12.47015,11.38195 -3.41036,0.92314 -3.91003,0.8566 -9.50105,-1.26524 l -2.91081,-1.10469 -3.26496,1.25997 c -3.90596,1.50733 -5.92665,1.81265 -8.55947,1.29329 z m 6.37865,-6.41645 c 0.97142,-0.40468 2.56713,-1.51622 3.54603,-2.47009 l 1.77982,-1.73431 1.5456,1.4931 c 2.30146,2.22327 5.33866,3.42446 8.68959,3.43665 6.35826,0.0231 9.47083,-3.48451 9.47568,-10.6784 0.003,-4.51709 -0.84812,-6.34646 -3.97555,-8.54449 -1.77288,-1.24604 -2.44778,-1.43151 -5.20286,-1.42983 -2.82153,0.002 -3.57,0.22124 -6.88392,2.019 -2.045,1.10939 -3.90583,2.01708 -4.13517,2.01708 -0.22935,0 -0.93415,-0.51716 -1.56623,-1.14924 -1.66082,-1.66082 -5.73477,-3.60211 -7.54799,-3.59672 -3.40522,0.0101 -8.22243,3.28942 -9.39691,6.39688 -0.85242,2.25535 -0.6646,8.57265 0.3036,10.21169 2.31745,3.92313 8.87671,5.89983 13.36831,4.02868 z"
     id="path36"
     transform="scale(0.75)" />
  <path
     style="fill:#ffffff;stroke-width:0.475059"
     d="m 211.5701,217.79468 c -2.90811,-0.57366 -6.63441,-2.62021 -8.90497,-4.89077 -8.03523,-8.03523 -5.37205,-20.96378 5.3274,-25.86215 3.17987,-1.45579 7.20884,-1.60977 10.47575,-0.40037 2.56214,0.94849 6.0469,0.97213 9.79775,0.0665 6.54494,-1.58034 11.02291,-0.43326 15.4014,3.94522 4.53585,4.53586 6.30125,10.50198 4.60911,15.57634 -1.73073,5.19005 -6.84697,9.85983 -12.47015,11.38195 -3.41036,0.92314 -3.91003,0.8566 -9.50105,-1.26524 l -2.91081,-1.10469 -3.26496,1.25997 c -3.90596,1.50733 -5.92665,1.81265 -8.55947,1.29329 z m 6.37865,-6.41645 c 0.97142,-0.40468 2.55642,-1.50577 3.52224,-2.44686 l 1.75602,-1.71107 1.69457,1.48786 c 2.63606,2.31449 4.49598,3.06793 8.09505,3.27925 5.86261,0.34423 8.76183,-1.98062 9.79674,-7.85589 1.08099,-6.1369 -1.41987,-11.03074 -6.34107,-12.40859 -2.97918,-0.83412 -5.60227,-0.32265 -9.78669,1.90828 -1.91436,1.02065 -3.73146,1.85203 -4.038,1.84752 -0.30654,-0.005 -1.07538,-0.55412 -1.70853,-1.22135 -1.59737,-1.68335 -5.39618,-3.52196 -7.26533,-3.5164 -3.36453,0.01 -8.22188,3.28739 -9.36799,6.32083 -0.61298,1.62237 -0.66824,7.91091 -0.083,9.45008 0.652,1.7149 3.3211,4.07427 5.47264,4.83758 2.59235,0.91969 6.08553,0.93187 8.2534,0.0288 z"
     id="path38"
     transform="scale(0.75)" />
  <path
     style="fill:#ffffff;stroke-width:0.475059"
     d="m 211.28072,217.78426 c -2.92551,-0.70628 -6.47581,-2.74057 -8.74745,-5.01221 -8.95048,-8.95048 -3.96713,-24.07801 8.83638,-26.82387 1.99671,-0.42821 2.98069,-0.3523 6.17888,0.47671 4.47103,1.15895 6.83149,1.22126 10.7175,0.28295 6.54494,-1.58034 11.02291,-0.43326 15.4014,3.94522 4.53585,4.53586 6.30125,10.50198 4.60911,15.57634 -1.75532,5.26378 -6.96862,9.94869 -12.732,11.44155 -3.43866,0.89071 -3.51995,0.87779 -9.95828,-1.58198 -2.19681,-0.83929 -2.21642,-0.83778 -5.46319,0.42194 -3.8543,1.49543 -6.40249,1.86239 -8.84235,1.27335 z m 6.4968,-6.33667 c 0.87724,-0.36654 2.47217,-1.45891 3.54428,-2.4275 l 1.9493,-1.76107 1.67252,1.46849 c 2.61337,2.29456 4.4818,3.04904 8.07301,3.2599 6.59535,0.38726 9.8802,-3.00016 9.93496,-10.24516 0.0353,-4.66828 -1.0163,-6.86674 -4.24189,-8.86814 -3.49955,-2.17138 -6.62006,-2.00802 -11.65669,0.61026 -2.11873,1.10141 -4.11828,2.00257 -4.44345,2.00257 -0.32516,0 -1.10947,-0.56274 -1.7429,-1.25052 -1.39527,-1.515 -5.43363,-3.48905 -7.15069,-3.49544 -3.05531,-0.0114 -7.49375,2.81144 -8.96976,5.70467 -1.31253,2.57278 -1.33182,8.61608 -0.0343,10.74398 2.46116,4.03621 8.71699,6.07492 13.0656,4.25796 z"
     id="path40"
     transform="scale(0.75)" />
</svg>
