<?xml version="1.0" standalone="no"?>
<!DOCTYPE svg PUBLIC "-//W3C//DTD SVG 20010904//EN"
 "http://www.w3.org/TR/2001/REC-SVG-20010904/DTD/svg10.dtd">
<svg version="1.0" xmlns="http://www.w3.org/2000/svg"
 width="328.000000pt" height="328.000000pt" viewBox="0 0 328.000000 328.000000"
 preserveAspectRatio="xMidYMid meet">

<g transform="translate(0.000000,328.000000) scale(0.100000,-0.100000)"
fill="#000000" stroke="none">
<path d="M1263 2116 c-177 -45 -322 -188 -368 -361 -68 -264 115 -541 393
-596 132 -25 275 13 537 145 148 75 486 271 545 317 l25 19 -25 19 c-60 47
-397 243 -544 316 -275 138 -427 176 -563 141z m250 -133 c131 -43 657 -317
657 -343 0 -12 -217 -136 -395 -226 -232 -117 -329 -149 -425 -141 -136 11
-260 98 -316 220 -25 53 -29 75 -29 147 0 109 33 186 109 259 117 110 240 136
399 84z"/>
</g>
</svg>
