<?xml version="1.0" standalone="no"?>
<!DOCTYPE svg PUBLIC "-//W3C//DTD SVG 20010904//EN"
 "http://www.w3.org/TR/2001/REC-SVG-20010904/DTD/svg10.dtd">
<svg version="1.0" xmlns="http://www.w3.org/2000/svg"
 width="358.000000pt" height="340.000000pt" viewBox="0 0 358.000000 340.000000"
 preserveAspectRatio="xMidYMid meet">

<g transform="translate(0.000000,340.000000) scale(0.100000,-0.100000)"
fill="#000000" stroke="none">
<path d="M2479 2610 c-138 -22 -261 -84 -359 -181 -94 -94 -201 -324 -295
-634 -75 -248 -192 -735 -175 -735 4 0 76 16 161 35 653 147 1062 297 1208
446 125 128 189 303 178 488 -14 238 -154 441 -368 534 -103 45 -242 64 -350
47z m253 -168 c129 -46 240 -154 289 -280 31 -79 37 -218 14 -298 -51 -177
-146 -271 -368 -363 -194 -80 -803 -258 -821 -240 -6 6 71 328 97 409 8 25 30
92 47 150 41 134 101 284 151 381 68 130 179 219 315 254 76 19 201 13 276
-13z"/>
<path d="M320 1380 l0 -70 420 0 420 0 0 70 0 70 -420 0 -420 0 0 -70z"/>
<path d="M630 1075 l0 -75 420 0 420 0 0 75 0 75 -420 0 -420 0 0 -75z"/>
</g>
</svg>
