<?xml version="1.0" encoding="UTF-8" standalone="no"?>
<svg
   xmlns:dc="http://purl.org/dc/elements/1.1/"
   xmlns:cc="http://creativecommons.org/ns#"
   xmlns:rdf="http://www.w3.org/1999/02/22-rdf-syntax-ns#"
   xmlns:svg="http://www.w3.org/2000/svg"
   xmlns="http://www.w3.org/2000/svg"
   viewBox="0 0 831.50269 831.50269"
   height="831.50269"
   width="831.50269"
   xml:space="preserve"
   id="svg2"
   version="1.1"><metadata
     id="metadata8"><rdf:RDF><cc:Work
         rdf:about=""><dc:format>image/svg+xml</dc:format><dc:type
           rdf:resource="http://purl.org/dc/dcmitype/StillImage" /></cc:Work></rdf:RDF></metadata><defs
     id="defs6"><clipPath
       id="clipPath18"
       clipPathUnits="userSpaceOnUse"><path
         id="path16"
         d="M 0,623.627 H 623.627 V 0 H 0 Z" /></clipPath><clipPath
       id="clipPath262"
       clipPathUnits="userSpaceOnUse"><path
         id="path260"
         d="M 0,623.627 H 623.627 V 0 H 0 Z" /></clipPath></defs><g
     transform="matrix(1.3333333,0,0,-1.3333333,0,831.50267)"
     id="g10"><g
       id="g12"><g
         clip-path="url(#clipPath18)"
         id="g14"><g
           transform="translate(311.811,311.8149)"
           id="g20"><path
             id="path22"
             style="fill:#3cade3;fill-opacity:1;fill-rule:nonzero;stroke:none"
             d="m 0,0 212.238,-122.536 c 20.857,36.047 32.8,77.895 32.8,122.536 0,44.641 -11.943,86.49 -32.8,122.537 z" /></g><g
           transform="translate(311.811,311.8149)"
           id="g24"><path
             id="path26"
             style="fill:#ffcd2c;fill-opacity:1;fill-rule:nonzero;stroke:none"
             d="M 0,0 -212.239,-122.536 C -169.867,-195.766 -90.69,-245.038 0,-245.038 v 0 z" /></g><g
           transform="translate(524.0493,189.2793)"
           id="g28"><path
             id="path30"
             style="fill:#2ba859;fill-opacity:1;fill-rule:nonzero;stroke:none"
             d="M 0,0 -212.238,122.536 V -122.502 C -121.548,-122.502 -42.371,-73.23 0,0" /></g><g
           transform="translate(311.811,311.8154)"
           id="g32"><path
             id="path34"
             style="fill:#ed373a;fill-opacity:1;fill-rule:nonzero;stroke:none"
             d="m 0,0 v 245.038 0 c -90.69,0 -169.868,-49.272 -212.239,-122.502 z" /></g><g
           transform="translate(99.5723,434.3511)"
           id="g36"><path
             id="path38"
             style="fill:#f47f35;fill-opacity:1;fill-rule:nonzero;stroke:none"
             d="m 0,0 c -20.856,-36.046 -32.8,-77.896 -32.8,-122.536 0,-44.641 11.944,-86.489 32.8,-122.536 l 212.239,122.536 z" /></g><g
           transform="translate(524.0493,434.3516)"
           id="g40"><path
             id="path42"
             style="fill:#5c5aa5;fill-opacity:1;fill-rule:nonzero;stroke:none"
             d="M 0,0 C -42.372,73.23 -121.549,122.501 -212.238,122.501 V -122.536 Z" /></g><g
           transform="translate(473.6558,311.8149)"
           id="g44"><path
             id="path46"
             style="fill:#ffffff;fill-opacity:1;fill-rule:nonzero;stroke:none"
             d="m 0,0 c 0,-89.383 -72.461,-161.844 -161.845,-161.844 -89.384,0 -161.844,72.461 -161.844,161.844 0,89.384 72.46,161.845 161.844,161.845 C -72.461,161.845 0,89.384 0,0" /></g><g
           transform="translate(392.7339,311.8154)"
           id="g48"><path
             id="path50"
             style="fill:#2a7592;fill-opacity:1;fill-rule:nonzero;stroke:none"
             d="m 0,0 c 0,-44.692 -36.23,-80.923 -80.923,-80.923 -44.692,0 -80.922,36.231 -80.922,80.923 0,44.692 36.23,80.923 80.922,80.923 C -36.23,80.923 0,44.692 0,0" /></g></g></g><text
       id="text54"
       style="font-variant:normal;font-weight:600;font-stretch:condensed;font-size:24.0000248px;font-family:'Barlow Condensed SemiBold';-inkscape-font-specification:BarlowCondensed-SemiBold;writing-mode:lr-tb;fill:#ffffff;fill-opacity:1;fill-rule:nonzero;stroke:none"
       transform="matrix(0.74169922,0.67073263,0.67073263,-0.74169922,175.0513,454.8916)"><tspan
         id="tspan52"
         y="0"
         x="0">G</tspan></text>
<text
       id="text58"
       style="font-variant:normal;font-weight:600;font-stretch:condensed;font-size:23.99998474px;font-family:'Barlow Condensed SemiBold';-inkscape-font-specification:BarlowCondensed-SemiBold;writing-mode:lr-tb;fill:#ffffff;fill-opacity:1;fill-rule:nonzero;stroke:none"
       transform="matrix(0.77722964,0.62921705,0.62921705,-0.77722964,183.1221,462.1982)"><tspan
         id="tspan56"
         y="0"
         x="0">R</tspan></text>
<text
       id="text62"
       style="font-variant:normal;font-weight:600;font-stretch:condensed;font-size:24.00003242px;font-family:'Barlow Condensed SemiBold';-inkscape-font-specification:BarlowCondensed-SemiBold;writing-mode:lr-tb;fill:#ffffff;fill-opacity:1;fill-rule:nonzero;stroke:none"
       transform="matrix(0.81059473,0.58560754,0.58560754,-0.81059473,191.542,469.0249)"><tspan
         id="tspan60"
         y="0"
         x="0">O</tspan></text>
<text
       id="text66"
       style="font-variant:normal;font-weight:600;font-stretch:condensed;font-size:23.99998474px;font-family:'Barlow Condensed SemiBold';-inkscape-font-specification:BarlowCondensed-SemiBold;writing-mode:lr-tb;fill:#ffffff;fill-opacity:1;fill-rule:nonzero;stroke:none"
       transform="matrix(0.84215886,0.5392295,0.5392295,-0.84215886,200.4507,475.4727)"><tspan
         id="tspan64"
         y="0"
         x="0">U</tspan></text>
<text
       id="text70"
       style="font-variant:normal;font-weight:600;font-stretch:condensed;font-size:23.99998283px;font-family:'Barlow Condensed SemiBold';-inkscape-font-specification:BarlowCondensed-SemiBold;writing-mode:lr-tb;fill:#ffffff;fill-opacity:1;fill-rule:nonzero;stroke:none"
       transform="matrix(0.87177142,0.48991283,0.48991283,-0.87177142,209.731,481.4419)"><tspan
         id="tspan68"
         y="0"
         x="0">N</tspan></text>
<text
       id="text74"
       style="font-variant:normal;font-weight:600;font-stretch:condensed;font-size:23.99998856px;font-family:'Barlow Condensed SemiBold';-inkscape-font-specification:BarlowCondensed-SemiBold;writing-mode:lr-tb;fill:#ffffff;fill-opacity:1;fill-rule:nonzero;stroke:none"
       transform="matrix(0.8988713,0.43821273,0.43821273,-0.8988713,220.1401,487.2852)"><tspan
         id="tspan72"
         y="0"
         x="0">D</tspan></text>
<text
       id="text78"
       style="font-variant:normal;font-weight:600;font-stretch:condensed;font-size:23.99998665px;font-family:'Barlow Condensed SemiBold';-inkscape-font-specification:BarlowCondensed-SemiBold;writing-mode:lr-tb;fill:#ffffff;fill-opacity:1;fill-rule:nonzero;stroke:none"
       transform="matrix(0.91631304,0.40046274,0.40046274,-0.91631304,230.2007,492.1245)"><tspan
         id="tspan76"
         y="0"
         x="0">I</tspan></text>
<text
       id="text82"
       style="font-variant:normal;font-weight:600;font-stretch:condensed;font-size:24.00003433px;font-family:'Barlow Condensed SemiBold';-inkscape-font-specification:BarlowCondensed-SemiBold;writing-mode:lr-tb;fill:#ffffff;fill-opacity:1;fill-rule:nonzero;stroke:none"
       transform="matrix(0.93294447,0.36002031,0.36002031,-0.93294447,234.9365,494.2793)"><tspan
         id="tspan80"
         y="0"
         x="0">N</tspan></text>
<text
       id="text86"
       style="font-variant:normal;font-weight:600;font-stretch:condensed;font-size:24.00002098px;font-family:'Barlow Condensed SemiBold';-inkscape-font-specification:BarlowCondensed-SemiBold;writing-mode:lr-tb;fill:#ffffff;fill-opacity:1;fill-rule:nonzero;stroke:none"
       transform="matrix(0.95226165,0.30528306,0.30528306,-0.95226165,246.0791,498.5698)"><tspan
         id="tspan84"
         y="0"
         x="0">G</tspan></text>
<text
       id="text90"
       style="font-variant:normal;font-weight:600;font-stretch:condensed;font-size:23.99995804px;font-family:'Barlow Condensed SemiBold';-inkscape-font-specification:BarlowCondensed-SemiBold;writing-mode:lr-tb;fill:#ffffff;fill-opacity:1;fill-rule:nonzero;stroke:none"
       transform="matrix(-0.11970021,0.99281008,0.99281008,0.11970021,115.9849,282.9531)"><tspan
         id="tspan88"
         y="0"
         x="0">F</tspan></text>
<text
       id="text94"
       style="font-variant:normal;font-weight:600;font-stretch:condensed;font-size:24.00001907px;font-family:'Barlow Condensed SemiBold';-inkscape-font-specification:BarlowCondensed-SemiBold;writing-mode:lr-tb;fill:#ffffff;fill-opacity:1;fill-rule:nonzero;stroke:none"
       transform="matrix(-0.07264994,0.9973575,0.9973575,0.07264994,114.8833,291.7832)"><tspan
         id="tspan92"
         y="0"
         x="0">A</tspan></text>
<text
       id="text98"
       style="font-variant:normal;font-weight:600;font-stretch:condensed;font-size:23.99997711px;font-family:'Barlow Condensed SemiBold';-inkscape-font-specification:BarlowCondensed-SemiBold;writing-mode:lr-tb;fill:#ffffff;fill-opacity:1;fill-rule:nonzero;stroke:none"
       transform="matrix(-0.01436668,0.99989679,0.99989679,0.01436668,114.0698,302.46)"><tspan
         id="tspan96"
         y="0"
         x="0">M</tspan></text>
<text
       id="text102"
       style="font-variant:normal;font-weight:600;font-stretch:condensed;font-size:24.00000381px;font-family:'Barlow Condensed SemiBold';-inkscape-font-specification:BarlowCondensed-SemiBold;writing-mode:lr-tb;fill:#ffffff;fill-opacity:1;fill-rule:nonzero;stroke:none"
       transform="matrix(0.03014166,0.99954564,0.99954564,-0.03014166,113.9678,315.2012)"><tspan
         id="tspan100"
         y="0"
         x="0">I</tspan></text>
<text
       id="text106"
       style="font-variant:normal;font-weight:600;font-stretch:condensed;font-size:23.99997711px;font-family:'Barlow Condensed SemiBold';-inkscape-font-specification:BarlowCondensed-SemiBold;writing-mode:lr-tb;fill:#ffffff;fill-opacity:1;fill-rule:nonzero;stroke:none"
       transform="matrix(0.0677084,0.99770515,0.99770515,-0.0677084,114.0796,320.4331)"><tspan
         id="tspan104"
         y="0"
         x="0">L</tspan></text>
<text
       id="text110"
       style="font-variant:normal;font-weight:600;font-stretch:condensed;font-size:24.00001335px;font-family:'Barlow Condensed SemiBold';-inkscape-font-specification:BarlowCondensed-SemiBold;writing-mode:lr-tb;fill:#ffffff;fill-opacity:1;fill-rule:nonzero;stroke:none"
       transform="matrix(0.1153541,0.99332443,0.99332443,-0.1153541,114.6563,329.4355)"><tspan
         id="tspan108"
         y="0"
         x="0">Y</tspan></text>
<text
       id="text114"
       style="font-variant:normal;font-weight:600;font-stretch:condensed;font-size:23.99997139px;font-family:'Barlow Condensed SemiBold';-inkscape-font-specification:BarlowCondensed-SemiBold;writing-mode:lr-tb;fill:#ffffff;fill-opacity:1;fill-rule:nonzero;stroke:none"
       transform="matrix(0.94966782,-0.31325872,-0.31325872,-0.94966782,368.8804,501.3823)"><tspan
         id="tspan112"
         y="0"
         x="0">E</tspan></text>
<text
       id="text118"
       style="font-variant:normal;font-weight:600;font-stretch:condensed;font-size:23.99995041px;font-family:'Barlow Condensed SemiBold';-inkscape-font-specification:BarlowCondensed-SemiBold;writing-mode:lr-tb;fill:#ffffff;fill-opacity:1;fill-rule:nonzero;stroke:none"
       transform="matrix(0.93150608,-0.36372575,-0.36372575,-0.93150608,378.6021,498.1895)"><tspan
         id="tspan116"
         y="0"
         x="0">X</tspan></text>
<text
       id="text122"
       style="font-variant:normal;font-weight:600;font-stretch:condensed;font-size:24.00006104px;font-family:'Barlow Condensed SemiBold';-inkscape-font-specification:BarlowCondensed-SemiBold;writing-mode:lr-tb;fill:#ffffff;fill-opacity:1;fill-rule:nonzero;stroke:none"
       transform="matrix(0.91017688,-0.41421979,-0.41421979,-0.91017688,388.6831,494.2583)"><tspan
         id="tspan120"
         y="0"
         x="0">P</tspan></text>
<text
       id="text126"
       style="font-variant:normal;font-weight:600;font-stretch:condensed;font-size:24.00000381px;font-family:'Barlow Condensed SemiBold';-inkscape-font-specification:BarlowCondensed-SemiBold;writing-mode:lr-tb;fill:#ffffff;fill-opacity:1;fill-rule:nonzero;stroke:none"
       transform="matrix(0.88790817,-0.46002075,-0.46002075,-0.88790817,397.8384,490.1172)"><tspan
         id="tspan124"
         y="0"
         x="0">A</tspan></text>
<text
       id="text130"
       style="font-variant:normal;font-weight:600;font-stretch:condensed;font-size:23.99997139px;font-family:'Barlow Condensed SemiBold';-inkscape-font-specification:BarlowCondensed-SemiBold;writing-mode:lr-tb;fill:#ffffff;fill-opacity:1;fill-rule:nonzero;stroke:none"
       transform="matrix(0.86014686,-0.51004644,-0.51004644,-0.86014686,407.3433,485.2207)"><tspan
         id="tspan128"
         y="0"
         x="0">N</tspan></text>
<text
       id="text134"
       style="font-variant:normal;font-weight:600;font-stretch:condensed;font-size:23.99999809px;font-family:'Barlow Condensed SemiBold';-inkscape-font-specification:BarlowCondensed-SemiBold;writing-mode:lr-tb;fill:#ffffff;fill-opacity:1;fill-rule:nonzero;stroke:none"
       transform="matrix(0.83030839,-0.5573042,-0.5573042,-0.83030839,417.6089,479.1118)"><tspan
         id="tspan132"
         y="0"
         x="0">S</tspan></text>
<text
       id="text138"
       style="font-variant:normal;font-weight:600;font-stretch:condensed;font-size:24.00001907px;font-family:'Barlow Condensed SemiBold';-inkscape-font-specification:BarlowCondensed-SemiBold;writing-mode:lr-tb;fill:#ffffff;fill-opacity:1;fill-rule:nonzero;stroke:none"
       transform="matrix(0.80786601,-0.58936619,-0.58936619,-0.80786601,426.1216,473.3418)"><tspan
         id="tspan136"
         y="0"
         x="0">I</tspan></text>
<text
       id="text142"
       style="font-variant:normal;font-weight:600;font-stretch:condensed;font-size:23.99999809px;font-family:'Barlow Condensed SemiBold';-inkscape-font-specification:BarlowCondensed-SemiBold;writing-mode:lr-tb;fill:#ffffff;fill-opacity:1;fill-rule:nonzero;stroke:none"
       transform="matrix(0.78308339,-0.62191671,-0.62191671,-0.78308339,430.3716,470.3198)"><tspan
         id="tspan140"
         y="0"
         x="0">O</tspan></text>
<text
       id="text146"
       style="font-variant:normal;font-weight:600;font-stretch:condensed;font-size:23.99996376px;font-family:'Barlow Condensed SemiBold';-inkscape-font-specification:BarlowCondensed-SemiBold;writing-mode:lr-tb;fill:#ffffff;fill-opacity:1;fill-rule:nonzero;stroke:none"
       transform="matrix(0.7460178,-0.66592601,-0.66592601,-0.7460178,438.9731,463.5142)"><tspan
         id="tspan144"
         y="0"
         x="0">N</tspan></text>
<text
       id="text150"
       style="font-variant:normal;font-weight:600;font-stretch:condensed;font-size:24.00002289px;font-family:'Barlow Condensed SemiBold';-inkscape-font-specification:BarlowCondensed-SemiBold;writing-mode:lr-tb;fill:#ffffff;fill-opacity:1;fill-rule:nonzero;stroke:none"
       transform="matrix(0.15918318,0.98724906,0.98724906,-0.15918318,520.1069,272.6797)"><tspan
         id="tspan148"
         y="0"
         x="0">S</tspan></text>
<text
       id="text154"
       style="font-variant:normal;font-weight:600;font-stretch:condensed;font-size:23.99996376px;font-family:'Barlow Condensed SemiBold';-inkscape-font-specification:BarlowCondensed-SemiBold;writing-mode:lr-tb;fill:#ffffff;fill-opacity:1;fill-rule:nonzero;stroke:none"
       transform="matrix(0.10944184,0.9939932,0.9939932,-0.10944184,521.7661,282.918)"><tspan
         id="tspan152"
         y="0"
         x="0">Y</tspan></text>
<text
       id="text158"
       style="font-variant:normal;font-weight:600;font-stretch:condensed;font-size:24.00002289px;font-family:'Barlow Condensed SemiBold';-inkscape-font-specification:BarlowCondensed-SemiBold;writing-mode:lr-tb;fill:#ffffff;fill-opacity:1;fill-rule:nonzero;stroke:none"
       transform="matrix(0.05964161,0.99821985,0.99821985,-0.05964161,522.9536,293.7676)"><tspan
         id="tspan156"
         y="0"
         x="0">S</tspan></text>
<text
       id="text162"
       style="font-variant:normal;font-weight:600;font-stretch:condensed;font-size:24.00003624px;font-family:'Barlow Condensed SemiBold';-inkscape-font-specification:BarlowCondensed-SemiBold;writing-mode:lr-tb;fill:#ffffff;fill-opacity:1;fill-rule:nonzero;stroke:none"
       transform="matrix(0.00882915,0.99996102,0.99996102,-0.00882915,523.5903,304.4639)"><tspan
         id="tspan160"
         y="0"
         x="0">T</tspan></text>
<text
       id="text166"
       style="font-variant:normal;font-weight:600;font-stretch:condensed;font-size:23.99996948px;font-family:'Barlow Condensed SemiBold';-inkscape-font-specification:BarlowCondensed-SemiBold;writing-mode:lr-tb;fill:#ffffff;fill-opacity:1;fill-rule:nonzero;stroke:none"
       transform="matrix(-0.04258339,0.99909292,0.99909292,0.04258339,523.6743,315.7539)"><tspan
         id="tspan164"
         y="0"
         x="0">E</tspan></text>
<text
       id="text170"
       style="font-variant:normal;font-weight:600;font-stretch:condensed;font-size:23.99997139px;font-family:'Barlow Condensed SemiBold';-inkscape-font-specification:BarlowCondensed-SemiBold;writing-mode:lr-tb;fill:#ffffff;fill-opacity:1;fill-rule:nonzero;stroke:none"
       transform="matrix(-0.09990429,0.99499705,0.99499705,0.09990429,523.2222,326.7881)"><tspan
         id="tspan168"
         y="0"
         x="0">M</tspan></text>
<text
       id="text174"
       style="font-variant:normal;font-weight:600;font-stretch:condensed;font-size:23.9999733px;font-family:'Barlow Condensed SemiBold';-inkscape-font-specification:BarlowCondensed-SemiBold;writing-mode:lr-tb;fill:#ffffff;fill-opacity:1;fill-rule:nonzero;stroke:none"
       transform="matrix(-0.15724601,0.98755946,0.98755946,0.15724601,521.8218,340.2187)"><tspan
         id="tspan172"
         y="0"
         x="0">S</tspan></text>
<text
       id="text178"
       style="font-variant:normal;font-weight:600;font-stretch:condensed;font-size:24.00000191px;font-family:'Barlow Condensed SemiBold';-inkscape-font-specification:BarlowCondensed-SemiBold;writing-mode:lr-tb;fill:#ffffff;fill-opacity:1;fill-rule:nonzero;stroke:none"
       transform="matrix(0.95568743,0.29438331,0.29438331,-0.95568743,368.9526,107.6699)"><tspan
         id="tspan176"
         y="0"
         x="0">R</tspan></text>
<text
       id="text182"
       style="font-variant:normal;font-weight:600;font-stretch:condensed;font-size:24px;font-family:'Barlow Condensed SemiBold';-inkscape-font-specification:BarlowCondensed-SemiBold;writing-mode:lr-tb;fill:#ffffff;fill-opacity:1;fill-rule:nonzero;stroke:none"
       transform="matrix(0.93850002,0.34527917,0.34527917,-0.93850002,380.0396,111.1084)"><tspan
         id="tspan180"
         y="0"
         x="0">E</tspan></text>
<text
       id="text186"
       style="font-variant:normal;font-weight:600;font-stretch:condensed;font-size:24.00003052px;font-family:'Barlow Condensed SemiBold';-inkscape-font-specification:BarlowCondensed-SemiBold;writing-mode:lr-tb;fill:#ffffff;fill-opacity:1;fill-rule:nonzero;stroke:none"
       transform="matrix(0.91969886,0.39262451,0.39262451,-0.91969886,390.3208,114.9131)"><tspan
         id="tspan184"
         y="0"
         x="0">L</tspan></text>
<text
       id="text190"
       style="font-variant:normal;font-weight:600;font-stretch:condensed;font-size:23.99997902px;font-family:'Barlow Condensed SemiBold';-inkscape-font-specification:BarlowCondensed-SemiBold;writing-mode:lr-tb;fill:#ffffff;fill-opacity:1;fill-rule:nonzero;stroke:none"
       transform="matrix(0.89667577,0.44268788,0.44268788,-0.89667577,400.5464,119.2998)"><tspan
         id="tspan188"
         y="0"
         x="0">A</tspan></text>
<text
       id="text194"
       style="font-variant:normal;font-weight:600;font-stretch:condensed;font-size:23.99998093px;font-family:'Barlow Condensed SemiBold';-inkscape-font-specification:BarlowCondensed-SemiBold;writing-mode:lr-tb;fill:#ffffff;fill-opacity:1;fill-rule:nonzero;stroke:none"
       transform="matrix(0.87480489,0.4844754,0.4844754,-0.87480489,409.5356,123.7129)"><tspan
         id="tspan192"
         y="0"
         x="0">T</tspan></text>
<text
       id="text198"
       style="font-variant:normal;font-weight:600;font-stretch:condensed;font-size:23.99995613px;font-family:'Barlow Condensed SemiBold';-inkscape-font-specification:BarlowCondensed-SemiBold;writing-mode:lr-tb;fill:#ffffff;fill-opacity:1;fill-rule:nonzero;stroke:none"
       transform="matrix(0.85460156,0.51928428,0.51928428,-0.85460156,419.3511,129.2217)"><tspan
         id="tspan196"
         y="0"
         x="0">I</tspan></text>
<text
       id="text202"
       style="font-variant:normal;font-weight:600;font-stretch:condensed;font-size:24.00005531px;font-family:'Barlow Condensed SemiBold';-inkscape-font-specification:BarlowCondensed-SemiBold;writing-mode:lr-tb;fill:#ffffff;fill-opacity:1;fill-rule:nonzero;stroke:none"
       transform="matrix(0.83253139,0.55397787,0.55397787,-0.83253139,424.3364,132.1914)"><tspan
         id="tspan200"
         y="0"
         x="0">O</tspan></text>
<text
       id="text206"
       style="font-variant:normal;font-weight:600;font-stretch:condensed;font-size:24.00001907px;font-family:'Barlow Condensed SemiBold';-inkscape-font-specification:BarlowCondensed-SemiBold;writing-mode:lr-tb;fill:#ffffff;fill-opacity:1;fill-rule:nonzero;stroke:none"
       transform="matrix(0.79922433,0.60103283,0.60103283,-0.79922433,434.1362,138.7158)"><tspan
         id="tspan204"
         y="0"
         x="0">N</tspan></text>
<text
       id="text210"
       style="font-variant:normal;font-weight:600;font-stretch:condensed;font-size:24.00002861px;font-family:'Barlow Condensed SemiBold';-inkscape-font-specification:BarlowCondensed-SemiBold;writing-mode:lr-tb;fill:#ffffff;fill-opacity:1;fill-rule:nonzero;stroke:none"
       transform="matrix(0.7637116,0.64555758,0.64555758,-0.7637116,444.2983,146.3984)"><tspan
         id="tspan208"
         y="0"
         x="0">A</tspan></text>
<text
       id="text214"
       style="font-variant:normal;font-weight:600;font-stretch:condensed;font-size:23.99999619px;font-family:'Barlow Condensed SemiBold';-inkscape-font-specification:BarlowCondensed-SemiBold;writing-mode:lr-tb;fill:#ffffff;fill-opacity:1;fill-rule:nonzero;stroke:none"
       transform="matrix(0.72939595,0.68409177,0.68409177,-0.72939595,453.0552,153.8359)"><tspan
         id="tspan212"
         y="0"
         x="0">L</tspan></text>
<text
       id="text218"
       style="font-variant:normal;font-weight:600;font-stretch:condensed;font-size:24.00001144px;font-family:'Barlow Condensed SemiBold';-inkscape-font-specification:BarlowCondensed-SemiBold;writing-mode:lr-tb;fill:#ffffff;fill-opacity:1;fill-rule:nonzero;stroke:none"
       transform="matrix(0.71587465,-0.69822882,-0.69822882,-0.71587465,159.2559,164.6279)"><tspan
         id="tspan216"
         y="0"
         x="0">M</tspan></text>
<text
       id="text222"
       style="font-variant:normal;font-weight:600;font-stretch:condensed;font-size:24.00004578px;font-family:'Barlow Condensed SemiBold';-inkscape-font-specification:BarlowCondensed-SemiBold;writing-mode:lr-tb;fill:#ffffff;fill-opacity:1;fill-rule:nonzero;stroke:none"
       transform="matrix(0.75559023,-0.65504459,-0.65504459,-0.75559023,168.9497,155.2393)"><tspan
         id="tspan220"
         y="0"
         x="0">A</tspan></text>
<text
       id="text226"
       style="font-variant:normal;font-weight:600;font-stretch:condensed;font-size:24.00001144px;font-family:'Barlow Condensed SemiBold';-inkscape-font-specification:BarlowCondensed-SemiBold;writing-mode:lr-tb;fill:#ffffff;fill-opacity:1;fill-rule:nonzero;stroke:none"
       transform="matrix(0.79170798,-0.61089973,-0.61089973,-0.79170798,177.6675,147.6787)"><tspan
         id="tspan224"
         y="0"
         x="0">N</tspan></text>
<text
       id="text230"
       style="font-variant:normal;font-weight:600;font-stretch:condensed;font-size:24px;font-family:'Barlow Condensed SemiBold';-inkscape-font-specification:BarlowCondensed-SemiBold;writing-mode:lr-tb;fill:#ffffff;fill-opacity:1;fill-rule:nonzero;stroke:none"
       transform="matrix(0.82527915,-0.56472499,-0.56472499,-0.82527915,187.7842,139.917)"><tspan
         id="tspan228"
         y="0"
         x="0">A</tspan></text>
<text
       id="text234"
       style="font-variant:normal;font-weight:600;font-stretch:condensed;font-size:23.99996758px;font-family:'Barlow Condensed SemiBold';-inkscape-font-specification:BarlowCondensed-SemiBold;writing-mode:lr-tb;fill:#ffffff;fill-opacity:1;fill-rule:nonzero;stroke:none"
       transform="matrix(0.85380535,-0.52059239,-0.52059239,-0.85380535,196.9248,133.6631)"><tspan
         id="tspan232"
         y="0"
         x="0">G</tspan></text>
<text
       id="text238"
       style="font-variant:normal;font-weight:600;font-stretch:condensed;font-size:23.99998283px;font-family:'Barlow Condensed SemiBold';-inkscape-font-specification:BarlowCondensed-SemiBold;writing-mode:lr-tb;fill:#ffffff;fill-opacity:1;fill-rule:nonzero;stroke:none"
       transform="matrix(0.88039228,-0.47424617,-0.47424617,-0.88039228,206.8696,127.6279)"><tspan
         id="tspan236"
         y="0"
         x="0">E</tspan></text>
<text
       id="text242"
       style="font-variant:normal;font-weight:600;font-stretch:condensed;font-size:23.99998093px;font-family:'Barlow Condensed SemiBold';-inkscape-font-specification:BarlowCondensed-SemiBold;writing-mode:lr-tb;fill:#ffffff;fill-opacity:1;fill-rule:nonzero;stroke:none"
       transform="matrix(0.90644238,-0.4223295,-0.4223295,-0.90644238,216.5684,122.3809)"><tspan
         id="tspan240"
         y="0"
         x="0">M</tspan></text>
<text
       id="text246"
       style="font-variant:normal;font-weight:600;font-stretch:condensed;font-size:23.9999733px;font-family:'Barlow Condensed SemiBold';-inkscape-font-specification:BarlowCondensed-SemiBold;writing-mode:lr-tb;fill:#ffffff;fill-opacity:1;fill-rule:nonzero;stroke:none"
       transform="matrix(0.92952184,-0.36876707,-0.36876707,-0.92952184,228.8496,116.7188)"><tspan
         id="tspan244"
         y="0"
         x="0">E</tspan></text>
<text
       id="text250"
       style="font-variant:normal;font-weight:600;font-stretch:condensed;font-size:23.99995041px;font-family:'Barlow Condensed SemiBold';-inkscape-font-specification:BarlowCondensed-SemiBold;writing-mode:lr-tb;fill:#ffffff;fill-opacity:1;fill-rule:nonzero;stroke:none"
       transform="matrix(0.94883527,-0.31577148,-0.31577148,-0.94883527,239.0713,112.6533)"><tspan
         id="tspan248"
         y="0"
         x="0">N</tspan></text>
<text
       id="text254"
       style="font-variant:normal;font-weight:600;font-stretch:condensed;font-size:24.0000248px;font-family:'Barlow Condensed SemiBold';-inkscape-font-specification:BarlowCondensed-SemiBold;writing-mode:lr-tb;fill:#ffffff;fill-opacity:1;fill-rule:nonzero;stroke:none"
       transform="matrix(0.96543231,-0.26065389,-0.26065389,-0.96543231,251.1899,108.6592)"><tspan
         id="tspan252"
         y="0"
         x="0">T</tspan></text>
<g
       id="g256"><g
         clip-path="url(#clipPath262)"
         id="g258"><g
           transform="translate(210.8745,300.1719)"
           id="g264"><path
             id="path266"
             style="fill:#2a7592;fill-opacity:1;fill-rule:nonzero;stroke:none"
             d="m 0,0 v 0 c -6.019,0 -20.478,9.391 -22.105,10.462 l -1.799,1.183 1.799,1.183 c 1.627,1.07 16.084,10.461 22.104,10.461 C 6.539,23.288 11.86,18.064 11.86,11.644 11.86,5.225 6.54,0 0,0" /></g><g
           transform="translate(271.4272,218.5801)"
           id="g268"><path
             id="path270"
             style="fill:#2a7592;fill-opacity:1;fill-rule:nonzero;stroke:none"
             d="M 0,0 -0.001,-0.002 C -3.01,-5.213 -18.372,-13.039 -20.115,-13.914 l -1.923,-0.965 -0.124,2.149 c -0.114,1.945 -1.018,19.158 1.992,24.373 3.272,5.664 10.455,7.66 16.016,4.451 C 1.405,12.883 3.27,5.664 0,0" /></g><g
           transform="translate(372.3638,230.2227)"
           id="g272"><path
             id="path274"
             style="fill:#2a7592;fill-opacity:1;fill-rule:nonzero;stroke:none"
             d="m 0,0 v 0 c 3.01,-5.213 2.105,-22.428 1.992,-24.375 l -0.125,-2.148 -1.924,0.966 c -1.741,0.873 -17.1,8.698 -20.112,13.912 -3.268,5.665 -1.405,12.883 4.154,16.096 C -10.454,7.66 -3.27,5.664 0,0" /></g><g
           transform="translate(412.7485,323.4595)"
           id="g276"><path
             id="path278"
             style="fill:#2a7592;fill-opacity:1;fill-rule:nonzero;stroke:none"
             d="m 0,0 v 0 c 6.02,0 20.478,-9.392 22.105,-10.463 l 1.799,-1.183 -1.8,-1.182 C 20.478,-13.899 6.021,-23.29 0.001,-23.29 c -6.539,0.002 -11.86,5.225 -11.862,11.646 C -11.86,-5.224 -6.54,0.001 0,0" /></g><g
           transform="translate(352.1968,405.0513)"
           id="g280"><path
             id="path282"
             style="fill:#2a7592;fill-opacity:1;fill-rule:nonzero;stroke:none"
             d="m 0,0 v 0 c 3.01,5.213 18.371,13.038 20.113,13.913 l 1.923,0.966 0.124,-2.149 C 22.274,10.785 23.179,-6.429 20.17,-11.644 16.897,-17.306 9.715,-19.303 4.152,-16.094 -1.407,-12.883 -3.271,-5.663 0,0" /></g><g
           transform="translate(251.2593,393.4082)"
           id="g284"><path
             id="path286"
             style="fill:#2a7592;fill-opacity:1;fill-rule:nonzero;stroke:none"
             d="m 0,0 v 0 c -3.01,5.212 -2.105,22.429 -1.993,24.375 l 0.126,2.148 1.924,-0.966 C 1.798,24.682 17.158,16.858 20.169,11.646 23.436,5.981 21.574,-1.238 16.014,-4.451 10.453,-7.66 3.269,-5.665 0,0" /></g></g></g><text
       id="text292"
       style="font-variant:normal;font-weight:600;font-stretch:semi-condensed;font-size:30px;font-family:'Barlow Semi Condensed SemiBold';-inkscape-font-specification:BarlowSemiCondensed-SemiBold;writing-mode:lr-tb;fill:#ffffff;fill-opacity:1;fill-rule:nonzero;stroke:none"
       transform="matrix(1,0,0,-1,269.04,319.9561)"><tspan
         id="tspan288"
         y="0"
         x="0 17.459999 32.880001 56.040001 71.129997">Human</tspan><tspan
         id="tspan290"
         y="36"
         x="-0.12 16.02 31.440001 46.709999 57.299999 72.629997">Energy</tspan></text>
</g></svg>