<?xml version="1.0" standalone="no"?>
<!DOCTYPE svg PUBLIC "-//W3C//DTD SVG 20010904//EN"
 "http://www.w3.org/TR/2001/REC-SVG-20010904/DTD/svg10.dtd">
<svg version="1.0" xmlns="http://www.w3.org/2000/svg"
 width="416.000000pt" height="416.000000pt" viewBox="0 0 416.000000 416.000000"
 preserveAspectRatio="xMidYMid meet">

<g transform="translate(0.000000,416.000000) scale(0.100000,-0.100000)"
fill="#006F91" stroke="none">
<path d="M1954 2706 c-403 -409 -740 -758 -750 -777 -26 -52 -24 -116 5 -140
31 -26 88 -24 139 4 40 22 1494 1487 1500 1512 3 14 -133 145 -151 144 -6 0
-341 -334 -743 -743z"/>
<path d="M2190 2478 c-405 -411 -741 -760 -751 -780 -63 -122 34 -205 152
-129 24 15 127 113 229 217 102 104 426 433 720 732 294 299 537 548 539 554
4 12 -129 148 -146 148 -6 0 -341 -334 -743 -742z"/>
<path d="M2424 2250 c-415 -422 -739 -758 -751 -782 -29 -51 -29 -97 -2 -132
26 -33 82 -35 138 -6 37 18 1486 1478 1498 1508 6 15 -123 152 -143 152 -6 0
-339 -333 -740 -740z"/>
<path d="M1031 1609 c-23 -83 -41 -152 -39 -154 1 -2 37 -26 79 -54 83 -55
197 -169 244 -243 17 -27 34 -48 39 -48 7 0 197 57 282 85 8 2 1 24 -17 61
-19 36 -29 72 -29 99 l0 43 -52 7 c-140 18 -233 108 -253 246 l-7 47 -50 6
c-28 4 -72 18 -99 32 -27 13 -50 24 -51 24 -2 0 -23 -68 -47 -151z"/>
<path d="M947 1312 c-71 -240 -99 -343 -94 -348 5 -5 369 100 390 113 8 5 -18
46 -76 115 -37 44 -118 112 -179 151 l-27 17 -14 -48z"/>
</g>
</svg>
