<?xml version="1.0" standalone="no"?>
<!DOCTYPE svg PUBLIC "-//W3C//DTD SVG 20010904//EN"
 "http://www.w3.org/TR/2001/REC-SVG-20010904/DTD/svg10.dtd">
<svg version="1.0" xmlns="http://www.w3.org/2000/svg"
 width="600.000000pt" height="600.000000pt" viewBox="0 0 600.000000 600.000000"
 preserveAspectRatio="xMidYMid meet">

<g transform="translate(0.000000,600.000000) scale(0.100000,-0.100000)"
fill="#006F91" stroke="none">
<path d="M3535 5535 c-200 -33 -393 -109 -564 -222 -189 -126 -382 -357 -476
-571 -89 -201 -121 -376 -112 -611 6 -169 31 -295 83 -425 14 -37 25 -68 23
-69 -2 -1 -42 -15 -89 -30 -265 -88 -510 -272 -649 -487 -270 -416 -570 -1332
-811 -2474 -22 -105 -38 -191 -37 -193 5 -4 399 80 641 137 212 50 514 129
721 188 l100 29 3 -174 2 -173 160 0 160 0 2 226 3 226 110 39 c61 21 116 39
123 39 9 0 12 -60 12 -265 l0 -265 160 0 160 0 0 335 0 334 122 63 c174 88
281 163 379 265 186 193 310 443 355 712 32 198 5 501 -60 656 -12 27 -12 37
-3 40 198 60 300 104 419 180 316 205 530 520 605 893 24 119 24 383 0 504
-95 478 -429 867 -882 1028 -144 50 -253 70 -420 75 -104 3 -178 0 -240 -10z
m376 -320 c144 -25 304 -89 419 -168 68 -47 207 -184 255 -252 298 -419 249
-984 -117 -1346 -135 -133 -324 -236 -506 -275 l-83 -18 -31 40 c-17 21 -69
76 -115 121 -213 209 -500 336 -812 359 l-94 7 -38 81 c-60 128 -80 220 -86
387 -6 156 6 249 49 374 164 480 663 777 1159 690z m-908 -1870 c168 -29 342
-112 477 -226 129 -110 255 -314 302 -489 20 -73 23 -108 22 -255 0 -141 -4
-183 -22 -247 -66 -241 -204 -441 -387 -563 -221 -147 -655 -315 -1262 -489
-320 -92 -800 -212 -809 -203 -14 14 154 659 271 1042 151 492 292 835 425
1033 199 298 607 463 983 397z"/>
<path d="M3340 4789 c-139 -23 -289 -134 -358 -265 -88 -168 -79 -378 24 -532
155 -234 454 -300 687 -152 l47 30 43 -30 c60 -43 150 -72 237 -78 394 -24
661 403 473 760 -138 263 -462 353 -706 196 -40 -26 -52 -29 -66 -20 -45 34
-163 82 -221 92 -74 11 -84 11 -160 -1z m204 -175 c34 -12 71 -38 122 -86 l73
-70 60 61 c81 83 150 115 251 115 307 0 460 -388 241 -612 -67 -68 -138 -97
-241 -97 -107 0 -169 28 -254 114 l-58 59 -62 -62 c-87 -88 -138 -111 -251
-111 -108 0 -163 23 -238 97 -73 73 -101 142 -101 253 -1 78 3 98 27 150 29
62 89 132 143 165 78 49 187 58 288 24z"/>
</g>
</svg>
