<?xml version="1.0" standalone="no"?>
<!DOCTYPE svg PUBLIC "-//W3C//DTD SVG 20010904//EN"
 "http://www.w3.org/TR/2001/REC-SVG-20010904/DTD/svg10.dtd">
<svg version="1.0" xmlns="http://www.w3.org/2000/svg"
 width="600.000000pt" height="600.000000pt" viewBox="0 0 600.000000 600.000000"
 preserveAspectRatio="xMidYMid meet">

<g transform="translate(0.000000,600.000000) scale(0.100000,-0.100000)"
fill="#000000" stroke="none">
<path d="M3590 5545 c-8 -2 -49 -9 -90 -15 -396 -64 -777 -342 -969 -709 -104
-199 -153 -403 -154 -631 0 -161 20 -283 69 -430 20 -58 36 -108 37 -113 1 -4
-32 -19 -73 -33 -198 -67 -367 -171 -511 -314 -53 -52 -119 -131 -148 -175
-208 -319 -438 -947 -644 -1755 -91 -354 -213 -907 -204 -917 18 -17 1065 232
1376 327 35 11 69 20 77 20 11 0 14 -32 14 -175 l0 -175 160 0 160 0 0 229 0
228 108 38 c59 21 113 40 119 43 10 3 13 -57 15 -264 l3 -269 160 0 160 0 3
337 2 338 65 29 c80 37 242 131 315 185 147 107 300 308 384 504 75 176 107
333 107 532 0 149 -17 265 -57 390 -14 45 -22 85 -17 89 4 4 42 17 83 30 414
127 751 455 890 866 54 161 65 233 65 440 -1 172 -3 200 -27 295 -106 420
-359 738 -733 921 -200 97 -386 140 -605 138 -69 -1 -132 -3 -140 -4z m402
-349 c297 -75 542 -274 678 -551 28 -55 62 -145 76 -200 24 -88 27 -119 27
-255 0 -135 -4 -168 -26 -252 -50 -190 -147 -357 -285 -490 -139 -134 -293
-220 -478 -266 l-103 -25 -22 29 c-47 62 -219 222 -294 272 -195 130 -416 205
-643 219 l-93 6 -25 49 c-154 305 -134 713 51 1004 166 262 432 436 740 484
99 15 287 4 397 -24z m-1012 -1851 c391 -59 701 -339 801 -724 26 -100 35
-274 20 -382 -41 -275 -199 -539 -406 -674 -219 -143 -676 -320 -1267 -489
-270 -77 -797 -210 -804 -203 -8 8 117 504 202 800 83 289 187 609 259 792 72
184 196 432 259 515 135 180 376 323 606 360 41 6 82 13 90 15 41 8 155 3 240
-10z"/>
<path d="M3325 4789 c-132 -27 -290 -149 -348 -269 -144 -299 0 -649 305 -741
132 -41 313 -14 415 60 l40 29 42 -29 c69 -46 148 -71 240 -77 155 -9 283 41
390 153 199 207 197 526 -4 731 -164 167 -409 199 -609 79 l-59 -35 -47 30
c-100 64 -250 92 -365 69z m245 -189 c24 -12 73 -50 107 -83 l63 -60 58 60
c79 81 135 107 237 111 63 3 92 -1 137 -18 75 -28 149 -98 185 -175 25 -53 28
-71 28 -160 0 -119 -18 -167 -91 -245 -86 -92 -213 -129 -328 -96 -76 22 -121
52 -179 116 l-48 53 -59 -62 c-81 -85 -149 -116 -255 -116 -66 0 -90 5 -136
26 -75 36 -134 96 -172 177 -27 57 -31 77 -31 147 1 160 87 287 233 342 57 21
195 12 251 -17z"/>
</g>
</svg>
