<?xml version="1.0" encoding="UTF-8" standalone="no"?>
<svg
   xmlns:dc="http://purl.org/dc/elements/1.1/"
   xmlns:cc="http://creativecommons.org/ns#"
   xmlns:rdf="http://www.w3.org/1999/02/22-rdf-syntax-ns#"
   xmlns:svg="http://www.w3.org/2000/svg"
   xmlns="http://www.w3.org/2000/svg"
   xmlns:sodipodi="http://sodipodi.sourceforge.net/DTD/sodipodi-0.dtd"
   xmlns:inkscape="http://www.inkscape.org/namespaces/inkscape"
   viewBox="0 0 638.94934 638.95063"
   height="638.95062"
   width="638.94934"
   xml:space="preserve"
   id="svg2"
   version="1.1"
   sodipodi:docname="KP-Perspectives-Wheel.svg"
   inkscape:version="1.0.2-2 (e86c870879, 2021-01-15)"><sodipodi:namedview
   pagecolor="#ffffff"
   bordercolor="#666666"
   borderopacity="1"
   objecttolerance="10"
   gridtolerance="10"
   guidetolerance="10"
   inkscape:pageopacity="0"
   inkscape:pageshadow="2"
   inkscape:window-width="1920"
   inkscape:window-height="1013"
   id="namedview548"
   showgrid="false"
   fit-margin-top="0"
   fit-margin-left="0"
   fit-margin-right="0"
   fit-margin-bottom="0"
   inkscape:zoom="1.0126245"
   inkscape:cx="167.39528"
   inkscape:cy="357.11225"
   inkscape:window-x="3191"
   inkscape:window-y="-9"
   inkscape:window-maximized="1"
   inkscape:current-layer="svg2" /><metadata
   id="metadata8"><rdf:RDF><cc:Work
       rdf:about=""><dc:format>image/svg+xml</dc:format><dc:type
         rdf:resource="http://purl.org/dc/dcmitype/StillImage" /><dc:title></dc:title></cc:Work></rdf:RDF></metadata><defs
   id="defs6"><clipPath
     id="clipPath22"
     clipPathUnits="userSpaceOnUse"><path
       id="path20"
       d="M 0,623.627 H 623.627 V 0 H 0 Z" /></clipPath><clipPath
     id="clipPath30"
     clipPathUnits="userSpaceOnUse"><path
       id="path28"
       d="M 180.34,462.969 H 311.842 V 311.12 H 180.34 Z" /></clipPath><clipPath
     id="clipPath46"
     clipPathUnits="userSpaceOnUse"><path
       id="path44"
       d="M 159.979,387.04 H 311.842 V 235.195 H 159.979 Z" /></clipPath><clipPath
     id="clipPath62"
     clipPathUnits="userSpaceOnUse"><path
       id="path60"
       d="M 180.34,311.12 H 311.842 V 159.266 H 180.34 Z" /></clipPath><clipPath
     id="clipPath78"
     clipPathUnits="userSpaceOnUse"><path
       id="path76"
       d="M 311.842,311.118 H 443.325 V 159.266 H 311.842 Z" /></clipPath><clipPath
     id="clipPath94"
     clipPathUnits="userSpaceOnUse"><path
       id="path92"
       d="M 311.842,387.028 H 463.68 V 235.207 H 311.842 Z" /></clipPath><clipPath
     id="clipPath110"
     clipPathUnits="userSpaceOnUse"><path
       id="path108"
       d="M 311.842,462.969 H 443.325 V 311.12 H 311.842 Z" /></clipPath><clipPath
     id="clipPath126"
     clipPathUnits="userSpaceOnUse"><path
       id="path124"
       d="M 0,623.627 H 623.627 V 0 H 0 Z" /></clipPath><clipPath
     id="clipPath214"
     clipPathUnits="userSpaceOnUse"><path
       id="path212"
       d="M 0,623.627 H 623.627 V 0 H 0 Z" /></clipPath></defs><g
   transform="matrix(1.3333333,0,0,-1.3333333,-96.275998,774.83865)"
   id="g10"><path
   id="path12"
   style="fill:#ffffff;fill-opacity:1;fill-rule:nonzero;stroke:none"
   d="M 551.419,101.916 H 72.207 v 479.213 h 479.212 z" /><path
   id="path14"
   style="fill:#ffffff;fill-opacity:1;fill-rule:nonzero;stroke:none"
   d="M 489.493,133.902 H 134.42 v 355.073 h 355.073 z" /><g
   id="g16"><g
     clip-path="url(#clipPath22)"
     id="g18"><g
       id="g24"><g
         id="g26" /><g
         id="g38"><g
           style="opacity:0.199997"
           id="g36"
           clip-path="url(#clipPath30)"><g
             id="g34"
             transform="translate(311.8423,311.1196)"><path
               id="path32"
               style="fill:#ee3338;fill-opacity:1;fill-rule:nonzero;stroke:none"
               d="m 0,0 v 151.85 h -0.014 c -56.197,0 -105.228,-30.553 -131.488,-75.93 z" /></g></g></g></g><g
       id="g40"><g
         id="g42" /><g
         id="g54"><g
           style="opacity:0.199997"
           id="g52"
           clip-path="url(#clipPath46)"><g
             id="g50"
             transform="translate(180.3403,387.0396)"><path
               id="path48"
               style="fill:#ffffff;fill-opacity:1;fill-rule:nonzero;stroke:none"
               d="m 0,0 c -12.926,-22.338 -20.361,-48.254 -20.361,-75.92 0,-27.67 7.435,-53.584 20.361,-75.924 l 131.502,75.924 z" /></g></g></g></g><g
       id="g56"><g
         id="g58" /><g
         id="g70"><g
           style="opacity:0.199997"
           id="g68"
           clip-path="url(#clipPath62)"><g
             id="g66"
             transform="translate(311.8423,311.1196)"><path
               id="path64"
               style="fill:#ffffff;fill-opacity:1;fill-rule:nonzero;stroke:none"
               d="m 0,0 -131.502,-75.924 c 26.26,-45.377 75.291,-75.93 131.488,-75.93 H 0 V -0.002 Z" /></g></g></g></g><g
       id="g72"><g
         id="g74" /><g
         id="g86"><g
           style="opacity:0.199997"
           id="g84"
           clip-path="url(#clipPath78)"><g
             id="g82"
             transform="translate(311.8423,159.2656)"><path
               id="path80"
               style="fill:#ffffff;fill-opacity:1;fill-rule:nonzero;stroke:none"
               d="M 0,0 C 56.197,0.006 105.225,30.561 131.482,75.941 L 0,151.852 Z" /></g></g></g></g><g
       id="g88"><g
         id="g90" /><g
         id="g102"><g
           style="opacity:0.199997"
           id="g100"
           clip-path="url(#clipPath94)"><g
             id="g98"
             transform="translate(443.3247,387.0278)"><path
               id="path96"
               style="fill:#ffffff;fill-opacity:1;fill-rule:nonzero;stroke:none"
               d="M 0,0 -131.482,-75.908 V -75.91 L 0,-151.821 c 12.92,22.338 20.355,48.248 20.355,75.913 C 20.355,-48.248 12.92,-22.336 0,0" /></g></g></g></g><g
       id="g104"><g
         id="g106" /><g
         id="g118"><g
           style="opacity:0.199997"
           id="g116"
           clip-path="url(#clipPath110)"><g
             id="g114"
             transform="translate(443.3247,387.0278)"><path
               id="path112"
               style="fill:#ffffff;fill-opacity:1;fill-rule:nonzero;stroke:none"
               d="M 0,0 C -26.258,45.381 -75.285,75.936 -131.482,75.941 V -75.908 Z" /></g></g></g></g></g></g><g
   id="g120"><g
     clip-path="url(#clipPath126)"
     id="g122"><g
       transform="translate(311.8423,311.1196)"
       id="g128"><path
         id="path130"
         style="fill:#ee3338;fill-opacity:1;fill-rule:nonzero;stroke:none"
         d="m 0,0 v 151.85 h -0.014 c -56.197,0 -105.228,-30.553 -131.488,-75.93 z" /></g><g
       transform="translate(203.373,373.8091)"
       id="g132"><path
         id="path134"
         style="fill:#f89734;fill-opacity:1;fill-rule:nonzero;stroke:none"
         d="m 0,0 c -10.664,-18.429 -16.798,-39.809 -16.798,-62.634 0,-22.827 6.134,-44.206 16.798,-62.638 l 108.489,62.638 z" /></g><g
       transform="translate(311.8823,311.231)"
       id="g136"><path
         id="path138"
         style="fill:#fff215;fill-opacity:1;fill-rule:nonzero;stroke:none"
         d="m 0,0 -85.476,-49.35 c 17.069,-29.496 48.939,-49.356 85.467,-49.356 H 0 v 98.705 z" /></g><g
       transform="translate(311.9219,265.7871)"
       id="g140"><path
         id="path142"
         style="fill:#00a85a;fill-opacity:1;fill-rule:nonzero;stroke:none"
         d="M 0,0 C 16.859,0.002 31.568,9.168 39.445,22.782 L 0,45.556 Z" /></g><g
       transform="translate(374.356,347.3437)"
       id="g144"><path
         id="path146"
         style="fill:#00b0f0;fill-opacity:1;fill-rule:nonzero;stroke:none"
         d="m 0,0 -62.454,-36.057 v -10e-4 L 0,-72.115 c 6.138,10.61 9.669,22.918 9.669,36.058 C 9.669,-22.918 6.138,-10.61 0,0" /></g><g
       transform="translate(420.3354,373.7998)"
       id="g148"><path
         id="path150"
         style="fill:#3f4096;fill-opacity:1;fill-rule:nonzero;stroke:none"
         d="M 0,0 C -21.662,37.439 -62.11,62.646 -108.473,62.651 V -62.625 Z" /></g></g></g>
<g
   id="g208"><g
     clip-path="url(#clipPath214)"
     id="g210"><g
       transform="translate(355.7603,311.1196)"
       id="g216"><path
         id="path218"
         style="fill:#ffffff;fill-opacity:1;fill-rule:nonzero;stroke:none"
         d="m 0,0 c 0,-24.256 -19.662,-43.92 -43.92,-43.92 -24.254,0 -43.918,19.664 -43.918,43.92 0,24.256 19.664,43.918 43.918,43.918 C -19.662,43.918 0,24.256 0,0" /></g><g
       transform="translate(355.7603,311.1196)"
       id="g220"><path
         id="path222"
         style="fill:none;stroke:#0e7693;stroke-width:1;stroke-linecap:butt;stroke-linejoin:miter;stroke-miterlimit:10;stroke-dasharray:none;stroke-opacity:1"
         d="m 0,0 c 0,-24.256 -19.662,-43.92 -43.92,-43.92 -24.254,0 -43.918,19.664 -43.918,43.92 0,24.256 19.664,43.918 43.918,43.918 C -19.662,43.918 0,24.256 0,0 Z" /></g><g
       transform="translate(332.3677,311.1196)"
       id="g224"><path
         id="path226"
         style="fill:#0e7693;fill-opacity:1;fill-rule:nonzero;stroke:none"
         d="m 0,0 c 0,-11.336 -9.191,-20.526 -20.527,-20.526 -11.336,0 -20.524,9.19 -20.524,20.526 0,11.336 9.188,20.525 20.524,20.525 C -9.191,20.525 0,11.336 0,0" /></g><g
       transform="translate(317.9771,313.1138)"
       id="g228"><path
         id="path230"
         style="fill:#ffffff;fill-opacity:1;fill-rule:nonzero;stroke:none"
         d="M 0,0 C -0.219,0.295 -0.461,0.576 -0.725,0.84 -2.16,2.273 -4.08,3.068 -6.129,3.068 h -0.01 c -0.5,0.883 -0.787,1.905 -0.787,2.991 0,3.369 2.742,6.111 6.112,6.111 3.371,0 6.113,-2.742 6.113,-6.111 C 5.299,2.963 2.986,0.4 0,0 m -2.152,-8.831 c -1.801,-1.8 -8.944,-3.726 -12.873,-4.625 0.902,3.926 2.826,11.067 4.629,12.87 0.917,0.918 2.07,1.504 3.316,1.703 0.314,0.051 0.629,0.076 0.951,0.076 1.549,0 2.998,-0.595 4.078,-1.677 0.43,-0.426 0.778,-0.912 1.049,-1.436 0.42,-0.827 0.641,-1.747 0.631,-2.705 -0.02,-1.581 -0.65,-3.075 -1.781,-4.206 m 9.324,14.89 c 0,4.402 -3.584,7.986 -7.986,7.986 -4.403,0 -7.985,-3.584 -7.985,-7.986 0,-1.157 0.248,-2.252 0.694,-3.243 -1.354,-0.351 -2.596,-1.058 -3.616,-2.078 -2.814,-2.816 -5.185,-13.969 -5.445,-15.233 l -0.289,-1.394 1.394,0.287 c 0.645,0.135 3.852,0.814 7.217,1.822 v -2.074 h 1.875 v 2.666 c 0.492,0.166 0.983,0.338 1.459,0.518 v -3.184 h 1.871 v 3.955 c 1.203,0.549 2.205,1.137 2.813,1.744 1.478,1.479 2.305,3.436 2.324,5.508 0.012,1.02 -0.172,2.006 -0.535,2.922 3.553,0.809 6.209,3.991 6.209,7.784" /></g><g
       transform="translate(318.9985,317.5806)"
       id="g232"><path
         id="path234"
         style="fill:#ffffff;fill-opacity:1;fill-rule:nonzero;stroke:none"
         d="M 0,0 C -0.561,0 -1.102,0.248 -1.484,0.678 L -1.836,1.072 -2.186,0.678 C -2.566,0.248 -3.109,0 -3.672,0 c -1.113,0 -2.021,0.945 -2.021,2.109 0,1.162 0.908,2.11 2.021,2.11 0.563,0 1.106,-0.25 1.486,-0.68 l 0.35,-0.394 0.352,0.394 c 0.382,0.43 0.923,0.68 1.484,0.68 1.115,0 2.023,-0.948 2.023,-2.11 C 2.023,0.945 1.115,0 0,0 m 0,5.152 c -0.668,0 -1.316,-0.232 -1.836,-0.656 -0.519,0.424 -1.166,0.656 -1.836,0.656 -1.631,0 -2.957,-1.365 -2.957,-3.043 0,-1.679 1.326,-3.045 2.957,-3.045 0.67,0 1.317,0.235 1.836,0.657 0.52,-0.422 1.168,-0.657 1.836,-0.657 1.631,0 2.959,1.366 2.959,3.045 0,1.678 -1.328,3.043 -2.959,3.043" /></g></g></g>
         </g>
           </svg>
