<?xml version="1.0" standalone="no"?>
<!DOCTYPE svg PUBLIC "-//W3C//DTD SVG 20010904//EN"
 "http://www.w3.org/TR/2001/REC-SVG-20010904/DTD/svg10.dtd">
<svg version="1.0" xmlns="http://www.w3.org/2000/svg"
 width="344.000000pt" height="264.000000pt" viewBox="0 0 344.000000 264.000000"
 preserveAspectRatio="xMidYMid meet">

<g transform="translate(0.000000,264.000000) scale(0.100000,-0.100000)"
fill="#006F91" stroke="">
<path d="M0 1325 l0 -1315 85 0 c49 0 85 4 85 10 0 5 24 60 54 122 132 277
240 407 447 542 92 59 139 82 259 126 47 17 74 33 73 41 -1 8 -13 46 -27 86
-82 236 -86 511 -10 755 168 538 707 900 1261 847 301 -28 554 -147 763 -358
369 -373 456 -930 219 -1402 -142 -284 -421 -522 -718 -610 -36 -11 -71 -22
-78 -24 -8 -3 -6 -22 10 -69 l21 -66 493 0 493 0 0 1315 0 1315 -1715 0 -1715
0 0 -1315z"/>
<path d="M2043 2248 c-583 -48 -973 -632 -800 -1198 25 -84 69 -170 86 -170 9
0 57 -5 106 -10 288 -33 511 -141 718 -352 l109 -110 51 12 c435 99 737 470
737 905 0 548 -459 969 -1007 923z m-14 -418 c39 -18 76 -39 82 -46 9 -11 16
-10 40 6 15 12 54 33 86 47 52 24 70 27 168 28 107 0 112 -1 185 -37 292 -143
357 -525 128 -751 -154 -152 -367 -178 -546 -67 l-45 28 -37 -24 c-89 -59
-233 -87 -331 -64 -356 83 -482 510 -232 780 40 44 76 70 127 94 89 43 100 45
212 42 78 -3 101 -8 163 -36z"/>
<path d="M1725 1696 c-63 -30 -127 -96 -156 -161 -34 -77 -32 -192 5 -265 35
-70 78 -115 141 -148 42 -22 63 -27 130 -27 99 0 154 24 228 101 l51 52 66
-62 c48 -45 80 -66 119 -79 109 -35 211 -13 296 65 73 66 99 129 100 233 0 71
-4 88 -33 147 -54 110 -145 167 -267 168 -92 0 -156 -30 -228 -105 l-53 -56
-42 50 c-89 105 -241 142 -357 87z"/>
<path d="M1190 575 c-298 -44 -526 -208 -666 -477 l-45 -88 831 0 c456 0 830
2 830 3 0 2 -16 37 -36 78 -128 264 -369 440 -664 484 -111 17 -135 17 -250 0z"/>
</g>
</svg>
