<?xml version="1.0" standalone="no"?>
<!DOCTYPE svg PUBLIC "-//W3C//DTD SVG 20010904//EN"
 "http://www.w3.org/TR/2001/REC-SVG-20010904/DTD/svg10.dtd">
<svg version="1.0" xmlns="http://www.w3.org/2000/svg"
 width="512.000000pt" height="512.000000pt" viewBox="0 0 512.000000 512.000000"
 preserveAspectRatio="xMidYMid meet">

<g transform="translate(0.000000,512.000000) scale(0.100000,-0.100000)"
fill="#000000" stroke="none">
<path d="M929 4151 c-23 -23 -29 -38 -29 -73 l0 -43 740 -740 c407 -407 740
-745 740 -750 0 -5 -333 -343 -740 -750 l-740 -740 0 -43 c0 -35 6 -50 29 -73
39 -39 85 -39 137 0 21 16 361 351 754 745 l715 716 745 -745 c743 -743 746
-745 786 -745 68 0 116 61 99 127 -4 19 -245 267 -745 768 l-740 740 739 740
c646 646 740 745 746 776 12 66 -32 118 -100 119 -39 0 -46 -6 -785 -745
l-745 -745 -745 745 -746 745 -43 0 c-34 0 -49 -6 -72 -29z"/>
</g>
</svg>
